<svg width="38" height="25" viewBox="0 0 38 25" fill="none" xmlns="http://www.w3.org/2000/svg">
<path d="M9.11248 0.0182063C9.22487 -0.0488028 9.29649 0.0866336 9.35712 0.157897C13.2583 5.03822 17.164 9.915 21.0648 14.7953C21.1449 14.8648 21.0843 15.0134 20.9762 14.9974C19.1084 14.9995 17.2403 14.9981 15.3725 14.9981C15.2228 14.9999 15.0796 14.9254 14.9878 14.8088C13.0498 12.3876 11.1129 9.96534 9.17488 7.54379C9.09262 7.44594 9.05008 7.31937 9.0554 7.19208C9.0554 4.85279 9.05611 2.51314 9.05469 0.173852C9.05575 0.118543 9.05362 0.0469245 9.11248 0.0182063Z" fill="white"/>
<path d="M27.157 0.00687631C27.2367 -0.0232601 27.3247 0.0504854 27.313 0.134158C27.3158 2.47451 27.3126 4.81487 27.3144 7.15523C27.3197 7.28783 27.2906 7.42503 27.2045 7.52927C26.6156 8.26602 26.0259 9.00241 25.437 9.7388C25.3388 9.86644 25.1782 9.93699 25.0176 9.92884C23.1622 9.92706 21.3065 9.9299 19.4511 9.92742C19.3416 9.94444 19.2792 9.79659 19.36 9.72533C21.933 6.50641 24.5081 3.28855 27.0825 0.07034C27.102 0.0426854 27.1268 0.0214127 27.157 0.00687631Z" fill="white"/>
<path d="M14.3283 19.0229C14.8914 18.9364 15.4824 19.0361 15.983 19.3098C16.4684 19.5725 16.8673 19.9919 17.1045 20.4908C17.3675 21.0378 17.4289 21.6774 17.2803 22.266C17.1392 22.8357 16.7978 23.3526 16.3319 23.7097C15.5352 24.3372 14.3677 24.4298 13.4806 23.9394C12.97 23.6654 12.5559 23.2176 12.3223 22.6872C12.028 22.0284 12.0241 21.2474 12.3109 20.5851C12.6566 19.7639 13.4458 19.1502 14.3283 19.0229ZM14.4705 19.9093C13.9053 19.9947 13.4083 20.3961 13.1867 20.9205C12.9576 21.4424 13.0026 22.0752 13.3079 22.557C13.5582 22.963 13.9851 23.2587 14.4574 23.3346C14.9374 23.4189 15.4487 23.2704 15.8146 22.9499C16.2319 22.5929 16.4578 22.0298 16.4106 21.4831C16.3752 20.9953 16.1248 20.5273 15.7345 20.2312C15.3806 19.9575 14.9126 19.8366 14.4705 19.9093Z" fill="white"/>
<path d="M0.411133 19.1438C0.630247 19.0843 0.86177 19.1325 1.08585 19.1155C1.16562 19.1265 1.28688 19.0853 1.33191 19.1754C1.34751 19.2927 1.33758 19.4115 1.339 19.5299C1.339 20.562 1.33864 21.5944 1.339 22.6265C2.24382 21.4959 3.14757 20.3645 4.05133 19.2332C4.09848 19.1743 4.16266 19.1222 4.24172 19.1208C4.50126 19.1094 4.76114 19.1222 5.02103 19.1158C5.11818 19.1176 5.22596 19.0992 5.30893 19.1637C5.00649 19.5622 4.68598 19.9469 4.3761 20.3397C3.44717 21.5026 2.51789 22.6652 1.5886 23.8277C1.51947 23.9121 1.45884 24.005 1.37623 24.078C1.29503 24.145 1.18193 24.1241 1.08478 24.1294C0.860351 24.1216 0.634501 24.1415 0.411133 24.1138V19.1438Z" fill="white"/>
<path d="M6.69314 19.3239C6.78957 19.1931 6.9477 19.1137 7.11044 19.1172C7.31112 19.1176 7.51215 19.1137 7.71283 19.119C7.78197 19.1116 7.82061 19.1832 7.81175 19.2442C7.81175 20.829 7.81175 22.4142 7.81175 23.999C7.82097 24.06 7.78374 24.1344 7.71283 24.1266C7.46429 24.1295 7.21575 24.1295 6.96721 24.1263C6.87609 24.1287 6.80411 24.0646 6.75306 23.9961C6.32334 23.4565 5.89149 22.9187 5.46177 22.3791C5.02426 22.924 4.58922 23.4707 4.15276 24.0167C4.10596 24.0766 4.03824 24.127 3.95882 24.1259C3.67412 24.1323 3.38906 24.1245 3.104 24.1291C3.03415 24.1245 2.94658 24.1468 2.90332 24.0741C4.15915 22.4851 5.43199 20.9088 6.69314 19.3239ZM5.98509 21.6228C6.28008 21.9898 6.57082 22.3599 6.86793 22.7247C6.87006 21.9891 6.86935 21.2537 6.86864 20.5181C6.5733 20.8857 6.27902 21.2541 5.98509 21.6228Z" fill="white"/>
<path d="M8.93744 19.2431C8.9307 19.1871 8.96119 19.1183 9.02608 19.1197C9.27604 19.1137 9.52706 19.1162 9.77738 19.1187C9.849 19.1109 9.89367 19.1818 9.88232 19.2474C9.88374 20.5755 9.88303 21.9036 9.88268 23.2321C10.5776 23.2346 11.2725 23.2303 11.9671 23.2339C12.0267 23.2211 12.0639 23.2966 12.0167 23.3367C11.8359 23.5696 11.6491 23.7983 11.465 24.0295C11.4094 24.1046 11.3151 24.1351 11.2243 24.1284C10.4918 24.1259 9.75894 24.1312 9.02643 24.1259C8.95907 24.1287 8.93106 24.0557 8.93744 23.9993C8.93744 22.4142 8.93709 20.8286 8.93744 19.2431Z" fill="white"/>
<path d="M18.1971 19.2449C18.1808 19.1718 18.2396 19.1055 18.3137 19.1176C19.5802 19.1162 20.8463 19.1169 22.1124 19.1172C22.1709 19.1091 22.24 19.1456 22.2344 19.2122C22.2383 19.5555 22.2351 19.899 22.2358 20.2422C22.2432 20.3241 22.2 20.3961 22.1496 20.4563C21.7841 20.9084 21.4246 21.365 21.058 21.8164C21.0399 21.8483 20.9796 21.8905 21.0253 21.9274C21.5792 22.6237 22.1376 23.3168 22.6907 24.0135C22.7307 24.0468 22.7315 24.1263 22.6659 24.1245C22.3375 24.1316 22.0089 24.128 21.6806 24.1263C21.5519 24.128 21.4792 24.0085 21.4079 23.9206C20.8995 23.2828 20.3907 22.6453 19.8805 22.0093C19.8426 21.9625 19.7844 21.8947 19.8372 21.837C20.3177 21.2271 20.8069 20.6237 21.2898 20.0153C20.5747 20.0121 19.8592 20.0213 19.1444 20.0107C19.1317 21.3509 19.1451 22.6918 19.1377 24.0319C19.1459 24.0943 19.0813 24.1358 19.0253 24.1273C18.7771 24.1273 18.5289 24.1312 18.2807 24.1255C18.2148 24.1263 18.1882 24.0522 18.1967 23.9972C18.1971 22.4131 18.1967 20.829 18.1971 19.2449Z" fill="white"/>
<path d="M23.498 19.2474C23.4867 19.1835 23.5281 19.1105 23.5998 19.1187C23.8362 19.1144 24.0734 19.1169 24.3103 19.1176C24.3989 19.1123 24.4847 19.1538 24.5368 19.2257C25.7186 20.7042 26.8999 22.183 28.0817 23.6614C28.1834 23.7979 28.3054 23.9206 28.3937 24.067C28.3852 24.0809 28.3681 24.1085 28.3596 24.1224C28.0732 24.1369 27.7856 24.1224 27.4988 24.1287C27.3857 24.1305 27.2488 24.1401 27.174 24.0366C26.7301 23.4859 26.2905 22.9318 25.8487 22.3794C25.4112 22.924 24.9758 23.4707 24.5397 24.0163C24.4929 24.077 24.4245 24.1266 24.345 24.1263C24.0976 24.1298 23.8501 24.1287 23.603 24.127C23.5292 24.1372 23.4863 24.0628 23.498 23.9979C23.498 22.4145 23.4984 20.8308 23.498 19.2474ZM24.4415 20.5205C24.4404 21.2559 24.4404 21.9908 24.4415 22.7262C24.7365 22.3588 25.03 21.9905 25.324 21.6225C25.0293 21.2555 24.7379 20.8857 24.4415 20.5205Z" fill="white"/>
<path d="M27.6657 19.2488C27.6583 19.1938 27.6827 19.1222 27.7476 19.1208C27.9834 19.1112 28.2195 19.1194 28.4553 19.1169C28.5468 19.1109 28.6425 19.141 28.6982 19.2176C29.6076 20.3528 30.5135 21.4909 31.4236 22.6255C31.4236 21.4991 31.4233 20.3727 31.4236 19.2459C31.4084 19.175 31.4637 19.1062 31.5378 19.1176C31.7874 19.1179 32.037 19.1119 32.2862 19.1208C32.3501 19.1233 32.3731 19.1942 32.366 19.2488C32.366 20.8315 32.366 22.4142 32.366 23.9969C32.3735 24.0507 32.3497 24.1238 32.2852 24.1248C32.0373 24.1319 31.7888 24.127 31.541 24.1273C31.4591 24.1305 31.3814 24.0912 31.3332 24.0263C30.4248 22.8921 29.5197 21.7551 28.6106 20.6216C28.6095 21.2864 28.6124 21.9515 28.6095 22.6163C28.6269 22.6755 28.5425 22.7262 28.5067 22.6723C28.2458 22.3557 27.9937 22.0316 27.7363 21.7122C27.6788 21.6494 27.6604 21.565 27.6646 21.4824C27.6661 20.7379 27.6643 19.9933 27.6657 19.2488Z" fill="white"/>
<path d="M33.0174 19.2119C33.01 19.1474 33.0788 19.1101 33.1352 19.1176C34.1761 19.1158 35.2171 19.1176 36.2581 19.1169C36.3481 19.1112 36.4424 19.1406 36.4974 19.2165C36.6817 19.4463 36.8679 19.6753 37.0491 19.9079C37.0969 19.9469 37.0611 20.0242 37.0008 20.0135C36.4566 20.0178 35.912 20.0135 35.3674 20.0153C35.3649 21.3427 35.3706 22.6701 35.3703 23.9976C35.383 24.061 35.3394 24.1341 35.2685 24.1266C35.02 24.1287 34.7711 24.1298 34.5229 24.1263C34.47 24.1309 34.424 24.0841 34.4293 24.0319C34.4204 22.6932 34.4289 21.3541 34.4218 20.0153C33.9925 20.0142 33.5627 20.0167 33.1337 20.0146C33.0767 20.0213 33.0086 19.982 33.0174 19.9174C33.0139 19.6824 33.0135 19.447 33.0174 19.2119Z" fill="white"/>
</svg>
