<svg width="39" height="23" viewBox="0 0 39 23" fill="none" xmlns="http://www.w3.org/2000/svg">
<path d="M2.49765 0.079042C2.227 0.160508 2.02509 0.271988 1.87473 0.456359C1.65994 0.71362 1.65134 0.75221 1.66853 1.51971C1.67712 1.96134 1.67712 2.7417 1.66853 3.26909C1.65994 4.21238 1.65994 4.21238 1.4838 4.15664C1.13153 4.03658 0.289528 4.09232 0.147762 4.24668C0.0274751 4.37531 0.0274751 4.37531 0.164946 4.32815C0.268048 4.29813 0.302416 4.31099 0.27664 4.37531C0.259456 4.43105 0.195017 4.46964 0.147762 4.45678C0.0919143 4.4482 0.0575467 4.59398 0.0575467 4.85553C0.0575467 5.08707 0.031771 5.40864 0.0102913 5.55871C-0.0197804 5.78167 0.0102913 5.88029 0.177833 6.05609C0.371151 6.26189 0.43559 6.27905 1.01125 6.27905C1.54824 6.27905 1.64275 6.30477 1.67712 6.41625C1.72438 6.60062 1.66853 15.7248 1.62127 15.8535C1.5955 15.9264 1.41507 15.9564 1.0671 15.9564C0.719123 15.9564 0.465662 16.0035 0.306712 16.0936C0.0661387 16.2394 0.0575467 16.2522 0.0489548 16.8782C0.031771 18.1517 0.0661387 18.1988 1.07569 18.1988H1.75015L1.72438 19.7338C1.6943 21.8948 1.75445 21.9892 3.30958 22.0749C5.61651 22.195 12.3697 22.2421 13.4781 22.1478C13.8647 22.1178 14.2084 22.1092 14.5822 22.1178C15.102 22.1264 15.2308 22.1178 15.3254 22.0277C15.407 21.9634 15.4371 21.9634 15.4371 22.0277C15.4371 22.0749 15.4757 22.1178 15.5187 22.1178C15.5659 22.1178 15.6003 22.0449 15.6003 21.9506C15.6003 21.8605 15.5702 21.8134 15.5187 21.8391C15.48 21.8648 15.4371 21.8477 15.4371 21.8005C15.4371 21.6547 15.6304 21.7533 15.7163 21.9463C15.7979 22.1221 15.8194 22.1221 17.5979 22.1221C18.5903 22.1221 19.9521 22.1478 20.6266 22.1692C22.4437 22.2421 25.292 22.1392 25.292 21.9934C25.292 21.9291 25.3306 21.882 25.3822 21.882C25.4294 21.882 25.4552 21.9377 25.4208 22.002C25.3908 22.1049 25.4767 22.1221 25.9965 22.1221C26.3316 22.1306 28.1831 22.1392 30.1163 22.1478C32.0409 22.1564 33.5917 22.1392 33.5703 22.1006C33.5531 22.0706 33.596 22.0449 33.6648 22.0449C33.7464 22.0449 33.7679 22.0835 33.7378 22.1392C33.6433 22.2893 35.7397 22.1649 36.092 21.9892C36.6762 21.7019 36.7106 21.5818 36.7149 19.8453C36.7235 18.9878 36.745 18.2374 36.7793 18.1645C36.8094 18.0702 36.8738 18.053 37.0027 18.0916C37.2347 18.1731 38.1068 18.1302 38.27 18.0445C38.3731 17.9802 38.3645 17.9716 38.2443 17.963C38.154 17.963 38.1068 17.9244 38.1326 17.8601C38.1497 17.8129 38.2056 17.7701 38.2443 17.7786C38.3474 17.8044 38.429 16.5223 38.3388 16.3637C38.1454 16.0207 38.1154 16.0035 37.3851 15.9649L36.6548 15.9264L36.6376 11.1027L36.6118 6.28762H37.3249C37.9822 6.28762 38.038 6.27047 38.2314 6.06466C38.3989 5.88887 38.4333 5.79454 38.3989 5.56729C38.3731 5.41722 38.3517 5.09564 38.3517 4.87268C38.3517 4.60256 38.3216 4.45678 38.2614 4.47393C38.2142 4.4825 38.1497 4.44391 38.1326 4.38389C38.1068 4.31957 38.1412 4.30242 38.2443 4.33672C38.3731 4.38389 38.3731 4.37531 38.27 4.26383C38.1412 4.12662 37.3507 4.06231 36.9898 4.16093C36.629 4.25525 36.5989 4.1695 36.5474 2.72884C36.4571 0.503524 36.2896 0.186234 35.1941 0.216248C34.8719 0.224824 34.5712 0.207673 34.5197 0.186234C34.4337 0.109056 33.0719 0.0147266 32.3846 0.0147266C32.1182 0.023302 31.6543 0.023302 31.345 0.023302C31.0399 0.023302 29.4547 0.0404528 27.818 0.0490282C26.1898 0.0576036 24.5488 0.0747543 24.1707 0.0876174C23.7927 0.10048 23.3287 0.117631 23.1311 0.113344C20.0208 0.0661789 17.4433 0.0490282 17.3058 0.0833297C17.2027 0.109056 17.1297 0.15622 17.1468 0.186234C17.1554 0.216248 17.1297 0.25055 17.0824 0.259125C17.0437 0.276276 17.0008 0.233399 17.0008 0.177659C17.0008 0.104768 16.6141 0.0833297 15.3597 0.0833297C14.0838 0.0833297 13.7273 0.109056 13.7316 0.177659C13.7487 0.233399 13.7015 0.280564 13.6285 0.280564C13.564 0.280564 13.5254 0.25055 13.5468 0.207673C13.6413 0.0618913 13.1215 0.0404528 9.46998 0.0404528C7.44229 0.0404528 5.13536 0.023302 4.34061 0.0104389C3.2881 -0.0152872 2.78548 0.00615124 2.49765 0.079042ZM18.7836 2.24433C29.7512 2.26148 33.3812 2.23575 33.3812 2.17144C33.3812 2.09855 33.407 2.10712 33.4457 2.17144C33.4757 2.22718 33.6863 2.28292 33.901 2.29149L34.3006 2.31722L34.3092 2.71597C34.3263 3.35484 34.4295 9.81639 34.4209 9.9536C34.3951 10.6353 34.4209 15.7763 34.4595 17.5685C34.4982 19.3608 34.4896 19.871 34.4123 19.9182C34.3564 19.9482 34.0514 19.9654 33.7464 19.9568C33.1536 19.9311 30.9884 19.9311 22.6886 19.9396C18.3841 19.9482 17.8256 19.9654 17.8643 20.0683C17.8943 20.1497 17.8557 20.1883 17.7526 20.1883C17.6495 20.1883 17.6065 20.1497 17.6409 20.0683C17.6795 19.9654 17.1769 19.9568 13.6113 19.9568C11.3774 19.9654 8.88573 19.9868 8.07379 20.0125C7.27045 20.0425 6.61746 20.0425 6.61746 20.0039C6.61746 19.9096 6.33823 19.9396 6.23083 20.0425C6.1578 20.1154 6.11054 20.124 6.07188 20.0597C6.04181 19.9954 5.65517 19.9654 5.02367 19.9568C4.47808 19.9482 3.99693 19.9268 3.96686 19.901C3.9282 19.8753 3.89383 19.5752 3.89383 19.215C3.89383 18.6791 3.87665 18.5847 3.77354 18.6233C3.69192 18.6533 3.65326 18.6147 3.65326 18.5118C3.65326 18.4089 3.69192 18.3661 3.77354 18.4004C3.87665 18.4389 3.89383 18.0874 3.90242 15.5447C3.93249 5.97891 3.93249 6.09039 3.8208 6.0518C3.75636 6.02607 3.73918 5.99606 3.79502 5.96176C3.91531 5.88887 3.93249 4.92413 3.8208 4.56826C3.76495 4.40961 3.74777 4.23382 3.79073 4.17808C3.8208 4.12234 3.85517 3.67213 3.87235 3.19619C3.88094 2.7074 3.88953 2.27005 3.88953 2.20574C3.89813 2.13285 3.94538 2.1157 4.03989 2.16715C4.11292 2.19716 10.7502 2.23575 18.7836 2.24433Z" fill="white"/>
<path d="M29.3782 4.21042L27.664 4.22769L27.3488 4.53421C27.081 4.79324 27.0249 4.89686 26.986 5.27677C26.8954 6.04092 26.8954 7.11158 26.9688 8.8212C27.0076 9.73213 27.0335 10.6172 27.0163 10.7942C26.999 10.9712 26.986 12.452 26.986 14.0968L26.9774 17.0757L27.1717 17.3909C27.2753 17.5592 27.4783 17.7449 27.6208 17.8096C27.9446 17.9478 31.1787 17.978 31.6062 17.8485C31.9991 17.7276 32.3144 17.3261 32.3619 16.8814C32.4439 16.1 32.4094 10.1509 32.323 9.9264L32.2323 9.71054H31.1269C30.3799 9.71054 29.9913 9.74076 29.9266 9.80552C29.8618 9.87028 29.8316 10.1854 29.8316 10.6733V11.4461L30.0734 11.5842L30.3152 11.731L30.3238 12.6333C30.3238 13.1341 30.3238 13.9371 30.3152 14.4379C30.3065 14.9775 30.3411 15.3963 30.3972 15.4827C30.462 15.5863 30.4706 15.6899 30.4058 15.8453C30.3238 16.0612 30.3152 16.0612 29.715 16.0309C29.0284 16.0007 28.9032 15.9489 29.0284 15.7892C29.1191 15.6769 29.158 10.0473 29.0846 7.40084L29.0457 6.10567L29.6243 6.07545C30.4879 6.0366 30.4792 6.02796 30.4792 6.60647C30.4792 6.88709 30.5181 7.14612 30.5742 7.20224C30.6476 7.27564 30.6476 7.29722 30.5742 7.29722C30.3972 7.29722 30.4706 7.52172 30.6649 7.56489C30.9542 7.62101 32.0898 7.57352 32.1719 7.4915C32.2021 7.45264 32.2539 6.83097 32.2755 6.10567L32.3057 4.78461L32.0812 4.56011C31.8869 4.36584 31.7185 4.30108 31.1787 4.21474C31.1269 4.19747 30.3108 4.19747 29.3782 4.21042ZM6.36368 4.36584C6.29028 4.43923 6.26869 4.89686 6.29028 6.01501C6.31618 7.81961 6.30755 7.68146 6.40254 7.53035C6.46731 7.43537 6.48458 7.45696 6.48458 7.62533C6.48458 7.73758 6.44572 7.84983 6.38959 7.8671C6.31618 7.893 6.2946 8.23837 6.2946 9.06728C6.28596 10.0732 6.26869 10.2588 6.14779 10.3797C6.02688 10.492 6.00098 10.669 6.00098 11.4115C6.00098 11.9037 6.02688 12.2793 6.05711 12.2577C6.13051 12.1843 6.40254 12.4347 6.40254 12.5815C6.40254 12.6376 6.37664 12.6851 6.34641 12.6851C6.30755 12.6851 6.27301 13.7903 6.25573 15.1416C6.2471 16.4929 6.27301 17.5981 6.30323 17.5981C6.34209 17.5981 6.4155 17.6887 6.46299 17.801C6.55367 17.9953 6.5839 18.0039 7.3568 18.0039C8.54855 18.0039 8.48378 18.1507 8.46219 15.2193C8.44492 13.9371 8.43196 12.8535 8.41469 12.8103C8.32402 12.4649 8.36719 12.4477 9.51144 12.4477C10.7507 12.4477 11.217 12.357 11.4934 12.0677L11.679 11.8648L11.7049 8.37221C11.7222 6.01933 11.6963 4.81915 11.6402 4.71553C11.4372 4.34425 11.2213 4.31403 8.76444 4.28813C7.06318 4.27518 6.42413 4.29245 6.36368 4.36584ZM9.54167 6.29563C9.5503 6.37766 9.5503 7.23678 9.55894 8.21247C9.55894 9.18816 9.58485 9.91777 9.5978 9.84006C9.66257 9.5983 9.78347 9.69327 9.78347 9.99116C9.78347 10.2243 9.75756 10.2718 9.65393 10.2329C9.56326 10.2027 9.54167 10.2243 9.57189 10.3279C9.61075 10.4488 9.56326 10.4661 9.07965 10.4402C8.77308 10.4229 8.50105 10.3581 8.43628 10.302C8.30674 10.1725 8.29811 9.93936 8.41901 9.93936C8.47514 9.93936 8.49241 9.3738 8.45787 8.09591C8.4406 7.08136 8.4406 6.22656 8.46651 6.20497C8.49673 6.17907 8.74717 6.15748 9.03215 6.15748C9.46395 6.1618 9.54167 6.18338 9.54167 6.29563ZM13.2551 4.33994C13.1169 4.49967 13.1644 6.287 13.3112 6.25678C13.3587 6.24814 13.4062 6.29563 13.4062 6.36039C13.4062 6.42515 13.3587 6.47264 13.3112 6.45537C13.2378 6.44673 13.1989 6.57625 13.1817 6.8655C13.1644 7.20224 13.1817 7.28427 13.2637 7.23678C13.3458 7.18929 13.3458 7.19793 13.281 7.29291C13.1514 7.46128 13.0651 16.5835 13.186 17.1232C13.2594 17.4124 13.3458 17.5679 13.5487 17.7103L13.8164 17.9176L15.9279 17.8873C18.2811 17.8571 18.4495 17.8139 18.7043 17.3218C18.8813 16.9764 18.9547 14.2609 18.9115 9.53354C18.8943 7.60806 18.8813 5.69122 18.8813 5.28972C18.8813 4.82346 18.8511 4.52558 18.7906 4.4824C18.7345 4.4565 18.6784 4.47377 18.6611 4.52126C18.6222 4.65941 18.4841 4.64214 18.4841 4.49535C18.4841 4.40038 18.3545 4.37447 17.7975 4.37447C16.6921 4.37447 16.7742 4.10681 16.7828 7.81961C16.7914 9.53354 16.813 11.4202 16.8389 11.9987C16.8778 12.7628 16.8649 13.0693 16.8001 13.0693C16.6533 13.0693 16.6965 13.3759 16.8562 13.4622C16.9512 13.527 16.9685 13.5658 16.8951 13.609C16.8389 13.6565 16.7914 14.0537 16.7742 14.7746C16.7483 15.7071 16.7267 15.9014 16.6058 16.0223C16.4676 16.1605 16.4547 16.1605 16.3553 16.0223C16.2344 15.8712 15.8976 15.8453 15.6558 15.9748C15.414 16.0957 15.1636 15.8626 15.2284 15.5733C15.2845 15.3315 15.3234 8.64851 15.2845 6.22656L15.2543 4.56875L14.9088 4.38311C14.6757 4.25359 14.5073 4.2061 14.408 4.25359C14.2568 4.31835 13.7171 4.31835 13.4839 4.24496C13.4105 4.24496 13.3112 4.27518 13.2551 4.33994ZM20.4315 4.3313C20.3408 4.45218 20.3106 7.37493 20.4012 7.7678C20.4401 7.9189 20.4401 8.29882 20.4185 8.61397C20.3883 8.92913 20.3926 9.21838 20.4358 9.27451C20.5394 9.40402 20.4358 9.70191 20.289 9.70191C20.2242 9.70191 20.194 9.74076 20.2156 9.78394C20.2415 9.83143 20.2069 9.92209 20.1422 9.99116C19.9953 10.1379 19.9565 11.2647 20.0947 11.3511C20.1422 11.377 20.1767 11.472 20.1767 11.554C20.1767 11.636 20.2156 11.7137 20.2674 11.731C20.3408 11.7569 20.3624 12.4779 20.3624 14.3731C20.3537 15.8885 20.3883 17.0282 20.4358 17.0887C20.4746 17.1361 20.4746 17.2009 20.4444 17.2182C20.4055 17.2441 20.3883 17.4124 20.4055 17.5894L20.4358 17.9176L22.5861 17.8917C25.79 17.8658 25.6043 18.0946 25.613 14.1314C25.613 11.4676 25.6043 11.3468 25.4532 11.1827C24.9696 10.6603 24.9135 10.561 25.043 10.492C25.3668 10.315 25.4446 9.94367 25.4618 8.73485C25.4705 8.09159 25.4877 6.92163 25.5007 6.13589C25.5266 4.78461 25.518 4.69395 25.3539 4.54284C25.1034 4.29245 24.7278 4.24496 22.5429 4.23632C21.0187 4.23632 20.4962 4.25359 20.4315 4.3313ZM23.4454 6.17043C23.4929 6.25246 23.4929 6.86119 23.4454 9.2227C23.4367 9.80984 23.3979 9.84438 22.7934 9.74508L22.4479 9.69759L22.4004 8.9982C22.3745 8.60965 22.3529 8.24269 22.3443 8.17793C22.3443 8.11318 22.3702 7.61238 22.4004 7.06841L22.4566 6.08409H22.9229C23.1776 6.07977 23.4108 6.11863 23.4454 6.17043ZM23.4108 11.8303C23.441 11.8778 23.4756 12.4995 23.4756 13.2075C23.4756 13.9155 23.4842 14.8264 23.4842 15.2366C23.4929 15.6381 23.4756 16.0094 23.4454 16.0482C23.3806 16.1518 22.5429 16.113 22.4047 15.9921C22.3141 15.9187 22.3011 15.8237 22.3486 15.6035C22.3875 15.4438 22.422 14.5329 22.422 13.5744C22.422 12.0764 22.4393 11.826 22.5515 11.7483C22.7027 11.636 23.3245 11.6921 23.4108 11.8303Z" fill="white"/>
</svg>
