<svg width="16" height="16" viewBox="0 0 16 16" fill="none" xmlns="http://www.w3.org/2000/svg">
<path d="M1.14286 12.8571L2.85714 10.8571L5.14286 8L0 2.85714V0H3.42857L7.71429 5.03571L12 0H15.4286V2.85714L10.2857 8L12.5714 10.8571L14.2857 12.8571L15.4286 14.2857V16H13.4286L12 14.5714L10 12.5714L7.71429 10.2857L5.14286 12.5714L3.42857 14.2857L1.71429 16H0V14.2857L1.14286 12.8571Z" fill="#1890CC"/>
<path d="M1.71429 9.71431H0V11.4286L4 15.4286H5.71429V13.7143L1.71429 9.71431Z" fill="#1890CC"/>
<path d="M9.42871 13.7143V15.4286H11.143L15.4287 11.4286V9.71427H13.543L9.42871 13.7143Z" fill="#1890CC"/>
</svg>
