<svg width="54" height="15" viewBox="0 0 54 15" fill="none" xmlns="http://www.w3.org/2000/svg">
<path d="M0.0234375 7.60913C0.0234375 11.6237 0.0335924 14.9068 0.0471323 14.9068C0.0674421 14.9068 2.82619 14.4071 3.16469 14.3409L3.34071 14.3078V11.627V8.94952H4.39005H5.43939V8.4597C5.43939 8.19162 5.44954 7.4933 5.46308 6.90419L5.48339 5.83849H4.41374H3.34071V4.66358V3.48867H4.57622C5.2566 3.48867 5.81173 3.48205 5.81173 3.47212C5.81173 3.43572 6.08253 0.609314 6.09946 0.467001L6.11977 0.31145H3.06991H0.0234375V7.60913Z" fill="white"/>
<path d="M50.6563 0.738395L47.9551 0.956829V7.54957V14.1423L48.0668 14.1588C48.1649 14.1754 53.3947 14.5461 53.4997 14.5428C53.5301 14.5428 53.5403 14.1919 53.5403 12.9045V11.2663H52.3894H51.2385V10.0748V8.88334H52.2201H53.2018V7.46021V6.03708H52.1863H51.1708V5.09384V4.1506L51.2487 4.13736C51.2893 4.12743 51.6345 4.11419 52.017 4.10096C52.3995 4.09103 52.8971 4.07448 53.1273 4.06124L53.5403 4.04138V2.27736V0.510032L53.4489 0.513342C53.3947 0.516651 52.1389 0.615939 50.6563 0.738395Z" fill="white"/>
<path d="M33.3145 1.19512C33.3484 1.52608 33.7343 6.51366 33.7275 6.52027C33.7241 6.52689 33.2265 5.33213 32.6206 3.86597C32.0181 2.39982 31.5103 1.18519 31.4968 1.16202C31.4765 1.12562 30.5422 1.29441 29.0088 1.61213L28.8633 1.64192V7.33113V13.0203H30.3696H31.8759L31.859 12.782C31.8251 12.3386 31.6999 8.67152 31.7134 8.5259C31.7236 8.39682 31.8251 8.62187 32.7865 10.8923C33.3687 12.2724 33.8629 13.4142 33.8764 13.434C33.8967 13.4539 34.3672 13.4241 35.1661 13.3579C35.86 13.2983 36.4287 13.2454 36.4287 13.2421C36.4321 13.2388 36.4151 10.8525 36.3915 7.9401C36.3678 5.02764 36.3474 2.27736 36.3474 1.82394L36.3441 1.00647H34.8208H33.2942L33.3145 1.19512Z" fill="white"/>
<path d="M9.48484 1.20835C7.46062 1.34074 6.34697 2.69437 5.99493 5.44134C5.92385 6.01059 5.89338 7.9434 5.94416 8.61856C6.11341 10.8095 6.71932 12.2327 7.79574 12.9575C8.37457 13.3447 9.2445 13.5532 10.1043 13.5035C11.0825 13.4506 11.7494 13.1792 12.3485 12.5934C12.8393 12.1135 13.1068 11.6634 13.364 10.8956C13.7228 9.82326 13.8853 8.22141 13.8041 6.55337C13.7127 4.68675 13.4249 3.52508 12.8326 2.63479C12.2673 1.78753 11.3736 1.28117 10.3311 1.21828C10.1652 1.20835 9.9892 1.19842 9.94181 1.19181C9.89442 1.1885 9.69132 1.19512 9.48484 1.20835ZM9.96212 3.8097C10.2092 4.07116 10.3142 5.11369 10.3142 7.34436C10.3142 10.0913 10.1381 11.2332 9.75225 10.9882C9.58638 10.879 9.46114 10.3462 9.40021 9.46251C9.35621 8.81714 9.35621 5.86166 9.40021 5.24276C9.46453 4.36903 9.57961 3.88583 9.75225 3.76999C9.84703 3.7038 9.86395 3.70711 9.96212 3.8097Z" fill="white"/>
<path d="M14.2402 7.22521V13.252H15.7939H17.3443L17.3646 12.8317C17.3781 12.5967 17.4052 11.8355 17.4255 11.1339C17.4458 10.4322 17.4729 9.81663 17.4864 9.76699C17.5033 9.69749 17.6489 10.1443 18.0957 11.6535C18.4207 12.7423 18.6949 13.6458 18.7084 13.6591C18.7355 13.6889 21.9106 13.444 21.9444 13.4109C21.9546 13.3976 21.6025 12.3154 21.1625 10.9982L20.3636 8.60863L20.5329 8.463C21.0948 7.98311 21.5585 7.05642 21.6905 6.13966C21.7481 5.7392 21.7109 4.74631 21.6229 4.37895C21.2844 2.93927 20.3873 1.82062 19.2432 1.40361C18.7456 1.22489 18.7862 1.2282 16.4337 1.21496L14.2402 1.20173V7.22521ZM17.7301 4.05461C17.9705 4.17044 18.1668 4.46831 18.2717 4.8787C18.3428 5.1534 18.3327 6.02382 18.2548 6.30183C18.1093 6.82475 17.852 7.12923 17.4661 7.24507L17.3883 7.26493V5.61012V3.95201L17.5 3.97518C17.5575 3.9851 17.6624 4.02151 17.7301 4.05461Z" fill="white"/>
<path d="M21.7891 2.77711V4.31608H22.6522H23.5154V8.75095V13.1858H25.1402H26.765V9.01572V4.84561H27.6451H28.5252V3.30665V1.76768L28.4507 1.75444C28.3796 1.73789 21.9245 1.23483 21.8331 1.23814C21.7992 1.23814 21.7891 1.5691 21.7891 2.77711Z" fill="white"/>
<path d="M37.0557 7.57604V13.583H38.7312H40.4068V7.57604V1.56911H38.7312H37.0557V7.57604Z" fill="white"/>
<path d="M44.231 1.9861C42.3963 2.08208 40.8697 2.16151 40.8392 2.16151C40.7817 2.16482 40.7783 2.2608 40.7783 3.72034V5.27585H41.6415H42.5047V9.62799V13.9801H44.1464H45.7881V9.44596V4.9118H46.702H47.616V3.35628C47.616 2.49909 47.6058 1.80408 47.5923 1.80408C47.5753 1.80739 46.0656 1.88682 44.231 1.9861Z" fill="white"/>
</svg>
