<svg width="16" height="19" viewBox="0 0 16 19" fill="none" xmlns="http://www.w3.org/2000/svg">
<g opacity="0.2">
<path d="M10 1.94709C10 2.03257 9.99434 2.11677 9.98337 2.19935C13.1435 3.07646 14 6.02683 14 7.6261V13.6296H15C15.5523 13.6296 16 14.0655 16 14.6032C16 15.1408 15.5523 15.5767 15 15.5767H1C0.447715 15.5767 0 15.1408 0 14.6032C0 14.0655 0.447715 13.6296 1 13.6296H2V7.6261C2 6.02683 2.85648 3.07646 6.01663 2.19935C6.00566 2.11677 6 2.03257 6 1.94709C6 0.871742 6.89543 0 8 0C9.10457 0 10 0.871742 10 1.94709Z" fill="white"/>
<path d="M9.33366 17.7776C9.33366 18.3667 8.73671 18.8443 8.00033 18.8443C7.26395 18.8443 6.66699 18.3667 6.66699 17.7776C6.66699 17.1885 7.33366 16.4443 8.00033 16.1776C8.66699 16.4443 9.33366 17.1885 9.33366 17.7776Z" fill="white"/>
</g>
</svg>
