<svg width="55" height="21" viewBox="0 0 55 21" fill="none" xmlns="http://www.w3.org/2000/svg">
<path d="M51.8245 14.9023C50.9023 14.6672 50.1066 14.4683 50.1066 13.7088C50.1066 13.112 50.5587 12.7323 51.282 12.7323C51.9511 12.6961 52.5659 13.1482 52.6925 13.8173L54.5008 12.9493C54.0126 11.7558 52.8372 11.0325 51.3363 11.0325C49.3833 11.0325 48.027 12.226 48.027 13.9258C48.027 16.0053 49.5279 16.4032 50.8661 16.7468C51.8064 16.9818 52.6021 17.1988 52.6021 17.9764C52.6021 18.6274 52.0777 19.0433 51.282 19.0433C50.4863 19.0433 49.8173 18.6093 49.6364 17.9583L47.8281 18.8263C48.3345 20.0198 49.6184 20.7431 51.2097 20.7431C53.3254 20.7431 54.6816 19.5677 54.6816 17.7232C54.6816 15.6256 53.0903 15.2278 51.8245 14.9023Z" fill="white"/>
<path d="M54.8271 2.62373V3.58214H53.29V4.4863H54.6282L54.375 5.40854H53.29V6.8371H52.2412V2.62373H54.8271Z" fill="white"/>
<path d="M49.5997 3.60024C50.2507 3.60024 50.7751 4.12465 50.7751 4.77565C50.7751 5.42664 50.2507 5.95105 49.5997 5.95105C48.9487 5.95105 48.4243 5.42664 48.4243 4.77565C48.4243 4.12465 48.9487 3.60024 49.5997 3.60024ZM49.5997 6.9637C50.8113 6.9637 51.7878 5.96913 51.7878 4.75756C51.7878 3.54599 50.7932 2.5695 49.5816 2.5695C48.37 2.5695 47.3936 3.56408 47.3936 4.75756C47.3936 5.98722 48.3881 6.98179 49.5997 6.9637Z" fill="white"/>
<path d="M30.3241 20.4719H32.2771V14.3056L36.7075 20.4719H38.7509V11.0868H36.7798V17.3435L32.4037 11.0868H29.8721L30.3241 12.009V20.4719Z" fill="white"/>
<path d="M45.3676 16.8914C45.0963 17.5605 44.5538 18.0849 43.9029 18.3743C43.5593 18.5189 43.1976 18.5913 42.8179 18.5913H41.6967V12.9855H42.8179C43.1976 12.9855 43.5593 13.0578 43.9029 13.2025C44.5719 13.4737 45.0963 14.0162 45.3676 14.6853C45.6569 15.4086 45.6569 16.1862 45.3676 16.8914ZM44.7166 11.4665C44.1199 11.2314 43.4869 11.1048 42.854 11.0687H39.6533V20.4538H42.854C44.1199 20.4538 45.3314 19.9837 46.2537 19.1157C46.6877 18.6998 47.0493 18.1934 47.2844 17.6329C48.062 15.8607 47.6461 13.7992 46.2537 12.4611C45.8016 12.0452 45.2953 11.7016 44.7166 11.4665Z" fill="white"/>
<path d="M13.0887 20.4719H7.50098V11.0868H13.0887V12.9132H9.54437V14.8119H12.7812L12.293 16.584H9.54437V18.6455L13.0887 18.6636V20.4719Z" fill="white"/>
<path d="M25.8573 12.9132H29.4016V11.0868H23.832V20.4719H29.4016V18.6636L25.8573 18.6455V16.584H28.606L29.0942 14.8119H25.8573V12.9132Z" fill="white"/>
<path d="M32.9468 7.41579C32.766 6.89138 32.6756 6.34889 32.6937 5.80639L32.7298 0.0197921H34.7552L34.7371 5.71598C34.7371 6.34889 34.8817 6.85521 35.1711 7.21688C35.8582 7.9402 37.0156 7.95828 37.7208 7.25304L37.757 7.21688C38.0644 6.85521 38.209 6.34889 38.209 5.71598L38.2271 0.00170898H40.2886L40.2524 5.84256C40.2524 6.38505 40.1801 6.92755 39.9993 7.45196C39.8365 7.90404 39.5653 8.31995 39.2398 8.68161C38.8962 9.02519 38.4984 9.29644 38.0463 9.45918C37.0156 9.82085 35.8944 9.82085 34.8637 9.44109C34.4116 9.26026 34.0138 9.0071 33.6883 8.64543C33.3628 8.30185 33.1096 7.88594 32.9469 7.41578L32.9468 7.41579Z" fill="white"/>
<path d="M22.7831 6.69246C22.5299 6.09571 22.4033 5.44472 22.4033 4.81181C22.4033 4.16082 22.548 3.52791 22.8011 2.93117C23.0543 2.35251 23.416 1.8281 23.8681 1.3941C24.3201 0.942022 24.8626 0.598443 25.4413 0.363362C26.038 0.110199 26.689 -0.0163834 27.3581 0.00169973C28.2442 -0.0163933 29.1302 0.218697 29.9078 0.652692C30.6311 1.0686 31.2279 1.68343 31.6076 2.44292L29.7632 3.31091C29.5462 2.87692 29.2026 2.51525 28.7867 2.26209C28.3527 2.00893 27.8463 1.90043 27.34 1.90043C26.9603 1.90043 26.5624 1.97276 26.2189 2.11743C25.8753 2.26209 25.5679 2.47909 25.3147 2.75033C25.0435 3.02158 24.8445 3.34708 24.6999 3.69066C24.3925 4.43207 24.3925 5.24581 24.6818 5.98721C24.953 6.69246 25.5136 7.27112 26.2008 7.57853C26.5624 7.74128 26.9422 7.83169 27.34 7.81361C27.9187 7.8317 28.4973 7.65086 28.9675 7.32537C29.4015 7.01795 29.7089 6.54779 29.8355 6.02338H26.4901L27.3219 4.32357H31.9874C32.0055 4.68523 31.9874 5.4628 31.9693 5.62555C31.915 6.05955 31.8065 6.49354 31.6438 6.90945C31.1917 8.03061 30.3056 8.8986 29.1845 9.35068C27.34 10.0921 25.2424 9.65809 23.8319 8.24761C23.3798 7.79553 23.0362 7.27112 22.7831 6.69246H22.7831Z" fill="white"/>
<path d="M1.04731 8.46716V0.998828L0.577148 0.0223389H3.07262V7.59917H6.81583L6.29142 9.44365H0.577148L1.04731 8.46716Z" fill="white"/>
<path d="M1.04731 19.4954V12.0271L0.577148 11.0506H3.07262V18.6274H6.81583L6.29142 20.4719H0.577148L1.04731 19.4954Z" fill="white"/>
<path d="M13.0887 9.44116H7.50098V0.056015H13.0887V1.88241H9.54437V3.78114H12.7812L12.293 5.55329H9.54437V7.59668L13.0887 7.61477V9.44116Z" fill="white"/>
<path d="M46.76 9.44116H41.1904V0.056015H46.7781V1.88241H43.2338V3.78114H46.4707L45.9825 5.55328H43.2338V7.59668L46.7781 7.61477V9.44116L46.76 9.44116Z" fill="white"/>
<path d="M18.4428 2.65991L19.6182 5.82446H17.2132L18.4428 2.65991ZM15.8208 9.44108L16.526 7.61469H20.2873L21.0106 9.44108H23.1264L19.347 0.0197754H16.4537L17.0685 1.24943L13.7412 9.44108H15.8208Z" fill="white"/>
<path d="M17.3241 20.6166C17.6677 20.6889 18.0112 20.7251 18.3729 20.7251C19.0058 20.7431 19.6387 20.6166 20.2355 20.3815C21.3566 19.9294 22.2427 19.0614 22.6948 17.9403C22.8575 17.5243 22.966 17.0903 23.0203 16.6563C23.0564 16.2224 23.0564 15.7884 23.0384 15.3363H18.3729V15.3544L17.5411 17.0542H20.8684C20.7418 17.5786 20.4344 18.0488 20.0004 18.3562C19.5302 18.6997 18.9697 18.8625 18.391 18.8444C18.2102 18.8444 18.0474 18.8263 17.8666 18.7902L17.4507 18.6817C17.3783 18.6636 17.3241 18.6274 17.2518 18.6093C16.5646 18.3019 16.004 17.7413 15.7328 17.018C15.4434 16.2766 15.4434 15.4448 15.7509 14.7034C15.8955 14.3598 16.1125 14.0343 16.3657 13.763C16.6188 13.4918 16.9443 13.2929 17.2879 13.1482C17.6496 13.0036 18.0293 12.9312 18.4091 12.9312C18.9154 12.9131 19.4217 13.0397 19.8557 13.2929C20.2716 13.5461 20.6152 13.9077 20.8322 14.3417L22.6767 13.4737C22.2969 12.7142 21.7183 12.0994 20.9769 11.6835C20.1993 11.2495 19.3313 11.0325 18.4272 11.0325C17.1252 11.0144 15.8774 11.5207 14.9371 12.443C14.485 12.877 14.1234 13.4014 13.8702 13.98C13.3458 15.1735 13.3458 16.5479 13.8521 17.7413C14.1053 18.32 14.4489 18.8444 14.8829 19.2965C15.2807 19.6943 15.7509 20.0198 16.2572 20.273C16.6128 20.4332 16.9685 20.5632 17.3241 20.6166Z" fill="white"/>
</svg>
