<svg width="16" height="18" viewBox="0 0 16 18" fill="none" xmlns="http://www.w3.org/2000/svg">
<circle opacity="0.2" cx="8" cy="8" r="8" fill="white"/>
<path d="M5.93164 18C5.83789 18 5.76465 17.9619 5.71191 17.8857C5.65918 17.8037 5.63281 17.7217 5.63281 17.6396C5.63281 17.54 5.65332 17.4639 5.69434 17.4111C5.74121 17.3525 5.81738 17.3203 5.92285 17.3145C6.19824 17.291 6.43555 17.2441 6.63477 17.1738C6.83398 17.0977 6.93359 16.9863 6.93359 16.8398L6.94238 11.1621C6.94238 10.8926 6.89258 10.6875 6.79297 10.5469C6.69922 10.4062 6.58496 10.3125 6.4502 10.2656C6.32129 10.2188 6.15137 10.1807 5.94043 10.1514C5.75879 10.1221 5.65625 10.1045 5.63281 10.0986C5.5625 10.0693 5.50977 10.0283 5.47461 9.97559C5.43945 9.92285 5.42188 9.84668 5.42188 9.74707C5.42188 9.66504 5.43945 9.58301 5.47461 9.50098C5.51562 9.41309 5.56836 9.36621 5.63281 9.36035C6.93359 9.27832 8.20801 9.2373 9.45605 9.2373C9.52051 9.2373 9.5791 9.2666 9.63184 9.3252C9.69043 9.37793 9.71973 9.46582 9.71973 9.58887V16.5498C9.71973 16.7549 9.77246 16.9131 9.87793 17.0244C9.98926 17.1299 10.1152 17.2002 10.2559 17.2354C10.3965 17.2646 10.5752 17.291 10.792 17.3145C10.9209 17.3262 11.0059 17.3525 11.0469 17.3936C11.0879 17.4287 11.1084 17.5107 11.1084 17.6396C11.1084 17.7158 11.0791 17.7949 11.0205 17.877C10.9678 17.959 10.8975 18 10.8096 18H5.93164ZM8.26953 7.7168C7.96484 7.7168 7.68652 7.64941 7.43457 7.51465C7.18262 7.37402 6.9834 7.18359 6.83691 6.94336C6.69043 6.69727 6.61719 6.41895 6.61719 6.1084C6.61719 5.79785 6.69043 5.51953 6.83691 5.27344C6.9834 5.02734 7.18262 4.83691 7.43457 4.70215C7.68652 4.56152 7.96484 4.49121 8.26953 4.49121C8.56836 4.49121 8.84375 4.56152 9.0957 4.70215C9.34766 4.83691 9.54688 5.02734 9.69336 5.27344C9.8457 5.51953 9.92188 5.79785 9.92188 6.1084C9.92188 6.41895 9.8457 6.69727 9.69336 6.94336C9.54688 7.18359 9.34766 7.37402 9.0957 7.51465C8.84375 7.64941 8.56836 7.7168 8.26953 7.7168Z" fill="#1E1E24"/>
</svg>
