<svg width="65" height="27" viewBox="0 0 65 27" fill="none" xmlns="http://www.w3.org/2000/svg">
<path d="M63.5716 16.9449C63.2033 17.2302 63.1552 17.2619 62.9471 17.5472C62.6908 17.8959 62.6107 18.0386 62.7068 18.419C62.7229 18.5141 62.8029 18.6726 62.851 18.7519C63.0431 19.0214 63.1552 19.1165 63.2994 19.3225C63.5876 19.7188 63.7157 19.8139 63.8599 20.2894C63.9239 20.5114 63.988 21.1771 64.004 21.4149V21.4307C63.956 21.8112 63.956 21.8904 63.9239 22.144C63.8919 22.3818 63.7638 22.7464 63.6357 22.9683C62.9791 24.0779 62.9631 23.7925 62.3385 24.3315C62.1623 24.49 61.73 24.6961 61.5378 24.8229C61.2175 25.0131 61.2175 24.9497 60.8652 25.0765C60.8011 25.0923 60.5929 25.1399 60.4968 25.1557C60.4168 25.1557 60.1285 25.1716 60.0004 25.0765C60.1125 24.9814 60.2406 25.0448 60.3527 24.9497C60.3527 24.9338 60.5449 24.7912 60.5289 24.7753C60.4328 24.8387 59.8082 25.0289 59.7121 25.0765C59.6641 25.1082 59.6161 25.124 59.584 25.0606C59.4879 24.9021 59.3758 25.0289 59.2798 24.8704C59.2477 24.8229 59.0395 24.8863 59.0876 24.8546C59.1676 24.8229 59.4239 24.7753 59.7442 24.5058C59.7442 24.49 59.4879 24.6485 59.4879 24.6327C59.3438 24.7119 58.8794 24.7436 58.7192 24.7912C58.5751 24.6961 58.495 24.5217 58.415 24.4107C58.3029 24.2364 59.1196 24.1571 59.0235 23.9828C58.9595 23.8877 59.4559 23.6657 59.3278 23.6974C59.2958 23.6974 58.6712 23.9511 58.6552 23.9194C58.7513 23.5706 58.8313 23.5865 58.8474 23.5706C59.4719 23.317 59.2477 23.3804 59.9043 23.1109C60.0324 23.0475 60.2086 22.9683 60.3527 22.8573C60.7531 22.572 60.8972 22.5245 61.1054 22.144C61.1214 22.1123 61.2175 21.9538 61.2175 21.9221C61.2495 21.7953 61.2816 21.716 61.2816 21.6685C61.3616 20.765 61.0093 20.6699 60.7371 20.2102C60.5129 19.8298 60.2887 19.4493 60.1605 19.0372C60.0645 18.53 59.8883 18.2764 60.0805 17.5472C60.1605 17.3253 60.2246 17.0717 60.3527 16.8815C60.5289 16.612 60.689 16.3267 60.9132 16.073C61.1695 15.7877 61.5538 15.5975 61.8901 15.3914C62.1143 15.2646 62.3225 15.2329 62.5467 15.122C62.5627 15.122 62.5787 15.1061 62.5947 15.1061C63.0752 14.9318 62.9951 15.0586 63.0431 15.328C63.0752 15.4548 63.0592 15.55 63.2033 15.5658C63.2673 15.5658 62.899 15.867 63.4915 15.6768C63.5716 15.6451 63.5876 15.7877 63.6036 15.867C63.6197 15.9304 63.4275 16.0255 63.4595 16.0572C63.6517 16.2633 63.6837 16.1999 63.8118 16.4535C63.8759 16.5803 63.8439 16.7546 63.7318 16.8498C63.6997 16.8498 63.6357 16.8973 63.5716 16.9449ZM37.6123 3.21778C37.6763 3.15437 37.8204 3.01171 37.8845 2.94831C37.9165 2.93246 37.9325 2.88491 37.9325 2.8532C37.9325 2.48863 37.9325 2.1399 37.9325 1.77533C37.9325 1.74362 37.9325 1.69607 37.9165 1.66437C37.4041 2.0448 37.7724 1.37905 37.9005 1.26809C37.9165 1.22054 37.9325 1.17298 37.9325 1.12543C37.9325 0.998621 37.9165 0.871812 37.9325 0.745003C37.9486 0.554789 37.9325 0.364576 37.9325 0.174362C37.9325 0.126809 37.9165 0 37.9005 0C37.8685 0 37.7884 0.0634045 37.7564 0.0951068C37.6283 0.221916 37.5002 0.364576 37.356 0.491385C37.0998 0.745003 36.8275 0.98277 36.5713 1.23639C36.2991 1.49001 36.0428 1.75948 35.7866 2.02894C35.6265 2.18746 35.4823 2.31426 35.3382 2.47278C35.146 2.67884 34.9699 2.90076 34.7617 3.10682C34.5535 3.29703 34.3293 3.4714 34.1211 3.67746C33.8008 3.99448 33.4645 4.32736 33.1442 4.64438C33.0001 4.80289 32.84 4.94555 32.6958 5.10406C32.5037 5.29428 32.3275 5.50034 32.1353 5.69056C31.9912 5.83322 31.815 5.96002 31.6709 6.10268C31.2866 6.48311 30.9022 6.86354 30.5179 7.24397C30.2777 7.48173 30.0214 7.73535 29.7812 7.97312C29.6851 8.06822 29.6851 8.11578 29.7812 8.21088C29.8132 8.24259 29.8613 8.27429 29.8933 8.30599C29.8613 8.33769 29.8613 8.3694 29.8453 8.38525C29.8613 8.4011 29.8613 8.4011 29.8773 8.41695C30.0374 8.57546 30.1976 8.71812 30.3417 8.87663C30.4058 8.92418 30.5019 8.97174 30.4538 9.0827C30.4538 9.0827 30.4698 9.09855 30.4858 9.1144C30.7581 9.36802 30.8702 9.49483 31.1264 9.76429C31.1745 9.8277 31.1905 9.81185 31.2385 9.76429C31.3026 9.70089 31.9111 9.1144 31.9912 9.05099C31.9912 9.06684 31.5268 9.63749 31.5268 9.63749C31.4787 9.70089 31.3666 9.84355 31.3186 9.90695C31.3186 9.92281 31.4307 9.92281 31.4307 9.92281C31.4627 9.8911 31.4947 9.87525 31.5428 9.84355C31.5108 9.95451 31.3666 9.98621 31.5428 10.113C31.6389 10.2081 31.751 10.3032 31.8311 10.3983C31.9271 10.5093 31.9752 10.4934 32.0713 10.3983C33.977 8.51206 35.9788 6.57822 37.8845 4.69193C37.9165 4.66023 37.9325 4.59683 37.9325 4.54927C37.9325 4.20055 37.9325 3.85182 37.9325 3.5031C37.9325 3.4714 37.9325 3.45555 37.9325 3.40799C37.8204 3.5031 37.7083 3.59821 37.5962 3.69331L37.308 3.91523C37.3881 3.82012 37.7564 3.48725 37.8525 3.40799C37.9486 3.32874 37.9486 3.24948 37.9325 3.15437C37.9005 3.17023 37.8845 3.18608 37.8685 3.18608C37.8845 3.12267 37.9165 3.05927 37.9486 2.99586C37.9325 2.99586 37.9325 2.98001 37.9165 2.98001C37.8525 3.02757 37.7884 3.07512 37.7244 3.12267C37.7083 3.12267 37.6123 3.20193 37.6123 3.21778ZM31.9752 0.396278C31.8311 0.523087 31.6709 0.665747 31.5268 0.808408C31.4307 0.887663 31.3506 0.998621 31.2545 1.09373C31.0784 1.26809 30.8862 1.41075 30.71 1.58511C30.5499 1.72777 30.4218 1.90214 30.2777 2.0448C30.1495 2.1716 29.9894 2.29841 29.8613 2.42522C28.6602 3.62991 27.4431 4.83459 26.226 6.02343C26.194 6.05513 26.194 6.08683 26.194 6.11854C26.226 6.2612 26.21 6.40386 26.21 6.54652C26.21 6.57822 26.194 6.87939 26.21 6.91109C27.8274 5.54789 27.2189 6.11854 26.274 7.18056C26.274 7.19641 26.258 7.19641 26.258 7.19641C26.194 7.27567 26.194 7.45003 26.194 7.57684C26.178 8.62301 26.194 9.52653 26.194 10.5569C26.194 10.6044 26.178 10.6361 26.242 10.6678C26.2901 10.6995 26.3221 10.652 26.3541 10.6203C27.1068 9.87525 27.8595 9.1144 28.6122 8.3694C28.7723 8.22674 28.9164 8.06822 29.0606 7.90971C29.1887 7.76705 29.3008 7.64024 29.4289 7.51343C29.4769 7.46588 29.541 7.43418 29.605 7.38663C29.9574 7.10131 30.2296 6.75258 30.5339 6.41971C30.71 6.22949 30.9182 6.03928 31.1104 5.84907C31.2225 5.73811 31.3826 5.643 31.4947 5.53204C32.3916 4.66023 33.2884 3.78842 34.1692 2.90076C34.2652 2.80565 34.3613 2.71054 34.4574 2.59959C34.5375 2.53618 34.4734 2.55203 34.4574 2.52033C34.4414 2.48863 34.4094 2.45692 34.3934 2.42522C34.3293 2.33012 34.2973 2.31426 34.1852 2.36182C34.1692 2.34597 34.1531 2.34597 34.1371 2.33012C34.0891 2.12405 33.9289 1.94969 33.8168 1.88628C33.7368 1.80703 33.7528 1.72777 33.6407 1.74362C33.6247 1.72777 33.6247 1.69607 33.6087 1.68022C33.5926 1.66437 33.5606 1.68022 33.5446 1.69607C33.4965 1.74362 33.2243 2.01309 33.1602 2.06065C33.0802 2.12405 33.2563 1.88628 33.2723 1.85458C33.2723 1.83873 33.2723 1.83873 33.2723 1.83873C33.2884 1.79118 33.4325 1.68022 33.4485 1.64852L33.4325 1.58511C33.3844 1.61682 33.3364 1.68022 33.2884 1.72777C33.2083 1.77533 33.1282 1.82288 33.1282 1.82288C33.1602 1.77533 33.2563 1.64852 33.2884 1.60096C33.3204 1.55341 33.3684 1.52171 33.3844 1.49001C33.3684 1.4583 33.3204 1.44245 33.3204 1.41075C33.2884 1.33149 33.2083 1.25224 33.1282 1.23639C33.0161 1.22054 32.888 1.22054 32.904 1.06203C32.904 1.04617 32.888 1.04617 32.888 1.03032C32.8239 0.935217 32.7759 0.824259 32.7118 0.729152C32.6958 0.713301 32.6638 0.69745 32.6478 0.69745C32.5517 0.69745 32.4556 0.713301 32.3755 0.713301C32.3916 0.681598 32.4076 0.634045 32.4076 0.586492C32.4076 0.538938 32.4076 0.443832 32.3435 0.412129L32.1193 0.538938L32.1033 0.317023C32.0232 0.269469 31.9592 0.380427 31.9752 0.396278ZM11.6689 19.2116C11.5888 19.1006 11.5568 19.0531 11.4767 18.9421C11.0123 18.2764 10.5639 17.7057 10.0995 17.0241C9.97138 16.8497 9.90732 16.9766 9.79522 16.7863C9.76319 16.7229 9.74718 16.6437 9.63507 16.6912C9.61906 16.6912 9.60305 16.6595 9.58703 16.6595C9.53899 16.6437 9.47493 16.6437 9.4429 16.6595C9.41087 16.6754 9.29877 16.6437 9.28276 16.6754C9.25073 16.7388 9.28276 16.818 9.25073 16.8973C9.2187 16.6278 9.31479 16.6595 8.97848 16.6437C8.81834 16.6437 8.67421 16.6595 8.51407 16.6595C8.49805 16.6595 8.48204 16.6595 8.46602 16.6595C8.20979 16.6754 8.17776 16.6278 8.17776 16.7863V16.8815C8.16175 16.8815 8.16175 16.8815 8.16175 16.818C8.14573 16.7546 8.16175 16.7229 8.14573 16.6754C8.14573 16.6437 8.09769 16.6595 8.08168 16.6595C8.06566 16.6595 8.01762 16.6595 8.00161 16.6754C7.98559 16.6912 7.98559 16.8339 7.98559 16.8656C7.98559 19.592 7.98559 22.0648 7.98559 24.7912C7.98559 24.8387 8.00161 24.9497 8.00161 24.9972C8.00161 25.0923 8.01762 25.4569 8.17776 25.4411C8.27385 25.4411 8.41798 25.7105 8.51407 25.6788C8.53008 25.6788 8.54609 24.9338 8.56211 24.9338C8.59414 24.9338 8.62617 25.9166 8.64218 25.9166C8.72225 25.9166 8.75428 25.869 8.83435 25.9007C8.86638 25.9007 8.8824 25.9166 8.91443 25.9166C9.26674 25.8373 8.91443 26.0751 9.26674 26.0276C9.45892 26.0117 9.57102 26.0434 9.71515 26.0276C9.89131 26.0117 9.82725 26.091 9.85928 25.4252C9.87529 25.3618 9.89131 25.2825 9.95536 25.235C10.0835 25.124 10.1475 25.2984 10.1315 25.0765C10.1315 24.7595 10.1315 24.173 10.1315 23.8559C10.1315 22.9207 10.1155 21.9855 10.1155 21.0503C10.1155 20.971 10.0995 20.6857 10.1155 20.5748C10.2436 20.7174 10.3077 20.8284 10.3237 20.8601C10.9483 21.827 11.5088 22.7781 12.1493 23.7608C12.1974 23.8401 12.2775 23.9352 12.3095 24.0145C12.4056 24.1413 12.5017 24.173 12.5977 24.173C12.7098 24.173 12.8059 24.173 12.918 24.173C13.1582 24.173 13.3184 24.1888 13.5586 24.1888C13.6387 24.1888 13.6387 24.1571 13.6387 24.0779C13.6387 23.9669 13.6387 23.6816 13.6547 23.5865C13.6867 23.6816 13.6867 23.9511 13.6867 24.0462C13.6867 24.2522 13.7508 24.2047 13.8949 24.2047C13.991 24.2205 13.959 24.062 13.959 23.9986C13.959 21.3039 13.959 18.2764 13.959 15.5817C13.959 15.5341 13.943 15.5024 13.943 15.4549C13.9269 15.4549 13.9109 15.3122 13.8949 15.3122C13.8789 15.3597 13.7828 15.6451 13.7668 15.6926C13.7188 15.6451 13.7508 15.5024 13.7027 15.4549C13.6707 15.439 13.7188 14.9159 13.6867 14.9159C13.6227 14.9159 13.4945 14.9159 13.4145 14.9159C13.2383 14.9159 13.2063 14.9159 13.1903 15.0903C13.1582 15.0903 13.1262 15.0586 13.0942 15.0744C13.0461 15.1061 12.9821 15.1061 12.9501 15.0744C12.918 15.0586 12.902 14.9952 12.87 14.9952C12.8059 14.9952 12.7098 14.9952 12.6458 14.9952C12.3255 15.011 12.4216 14.9159 12.4056 15.5975C12.4216 15.6292 12.3896 15.439 12.3896 15.5658C12.3415 15.4707 12.3255 15.4548 12.3255 15.328C12.3255 15.2805 12.3255 15.2805 12.0693 15.2805C12.0693 15.2963 12.0693 15.3914 12.0693 15.3914C11.8771 15.4073 11.8611 15.5658 11.8611 15.9304C11.8611 16.1206 11.733 16.0413 11.733 16.2316C11.733 17.2777 11.733 18.2764 11.733 19.2591L11.6689 19.2116ZM1.94816 16.3108C1.91613 16.2791 1.8841 16.2633 1.85207 16.2474C1.83606 16.2474 1.80403 15.867 1.78801 15.867C1.72396 15.8511 1.67591 15.8511 1.61185 15.8511C1.57983 15.8353 1.59584 16.0096 1.56381 16.0096C1.49975 16.0096 1.35562 16.0096 1.29157 16.0096C1.21149 15.9938 1.25954 15.8987 1.17947 15.8987C1.16345 15.8987 1.09939 15.867 1.08338 15.9145C1.05135 16.0096 1.03534 16.2157 1.01932 16.2157C0.859177 16.1682 0.827148 16.2316 0.827148 16.3901C0.827148 18.1495 0.827148 19.7505 0.827148 21.51C0.827148 21.938 0.875192 22.3818 0.971278 22.8098C1.24352 23.634 1.61185 23.9669 1.93214 24.2522C2.17236 24.4741 2.57272 24.7595 2.97308 24.8863C3.72576 25.124 4.60655 24.9814 4.9909 24.8546C5.56741 24.6961 5.83966 24.5217 6.28806 24.1571C6.38415 24.0779 6.48024 23.9828 6.56031 23.8876C7.04074 23.2853 7.26494 22.461 7.26494 21.7002C7.26494 19.7188 7.28096 21.4149 7.31299 16.0096C7.31299 15.9304 7.45712 15.7402 7.45712 15.6609C7.45712 15.5975 7.15284 15.6134 7.08878 15.6134C6.91262 15.5975 6.72045 15.6134 6.54429 15.6134C6.38415 15.6134 6.28806 15.6926 6.12792 15.6926C6.06386 15.6926 5.9998 15.6768 5.98379 15.756C5.96777 15.867 5.87169 16.612 5.85567 16.7071C5.74357 15.9621 5.95176 15.6609 5.72756 15.6926C5.50336 15.6926 5.26314 15.6926 5.03894 15.6926C4.94285 15.6926 4.87879 15.7719 4.87879 15.8511C4.87879 17.785 4.87879 19.3701 4.87879 21.2881C4.87879 21.4624 4.87879 21.4783 4.84677 21.6368C4.71865 22.144 4.41438 22.3184 3.80583 22.2708C3.50156 22.2233 3.29337 22.0965 3.16525 21.7319C3.11721 21.3198 3.13322 20.971 3.10119 20.5589C3.16525 18.8311 3.08518 18.1337 3.08518 16.6278C3.08518 16.4218 3.18127 16.3267 2.92504 16.3425C2.78091 16.3267 2.65279 16.3267 2.50866 16.3267C2.47663 16.3267 2.46062 16.3584 2.42859 16.3742C2.31649 16.3425 2.20439 16.3108 2.09229 16.3425C2.04424 16.3584 2.04424 16.5169 2.01221 16.612C1.9962 16.5961 1.98019 16.3267 1.94816 16.3108ZM24.1121 18.1971C24.9128 18.1971 25.5214 18.1971 26.3381 18.1971C26.5143 18.1971 26.5143 18.0703 26.4822 17.9118C26.4662 17.8959 26.4662 17.8642 26.4662 17.8484C26.4662 17.4045 26.4662 16.9449 26.4662 16.501C26.4662 16.1999 26.4662 16.3108 26.2901 16.2791C26.2901 16.1047 26.3061 16.1047 26.194 16.1047C24.5925 16.1047 23.0712 16.1206 21.4697 16.1206C21.4377 16.1206 21.2776 16.1047 21.2455 16.1047C21.1655 16.1047 21.0213 16.1047 20.9893 16.1206C21.0053 16.1364 21.1174 16.2316 21.2135 16.2633C21.2615 16.2791 21.3416 16.3108 21.4217 16.3267C21.4857 16.3425 21.5018 16.3425 21.5658 16.3901C21.4377 16.4218 20.7651 16.3267 21.3576 16.5803C21.4057 16.6437 21.4537 16.6595 21.4697 16.7229C21.5338 16.8022 21.5818 16.6754 21.6139 17.4204C21.6299 17.9276 21.6139 18.2288 21.6139 18.736C21.6139 18.847 21.6299 19.2908 21.6299 19.4018C21.6299 19.6078 21.6299 19.703 21.6299 19.909C21.6299 20.0675 21.6459 20.2736 21.6459 20.4321C21.6299 20.765 21.6459 21.0661 21.6459 21.399C21.6459 22.2391 21.6779 23.5548 21.6779 24.4424C21.6779 24.49 21.822 24.5534 21.822 24.601C21.822 24.7119 21.9021 24.7912 22.0142 24.7912C22.2064 24.7912 22.3345 24.7912 22.5107 24.7912C22.5427 24.7912 22.5747 24.7912 22.6228 24.7912C22.6228 24.6168 22.6708 24.4424 22.6708 24.2839L22.7188 23.9828C22.7349 24.1571 22.7509 24.6168 22.7669 24.7912C22.8149 24.7912 22.8149 24.7912 22.847 24.7912C22.9431 24.7912 23.0391 24.7912 23.1352 24.7912C23.2473 24.7912 23.3594 24.7912 23.4715 24.7912C23.5356 24.7912 23.6157 24.2998 23.6797 24.2998C24.5285 24.2998 25.0409 24.2998 25.8897 24.2998C25.9217 24.2998 25.9698 24.2998 26.0018 24.2998C26.258 24.2998 26.21 24.2047 26.226 24.062C26.226 23.9669 26.226 23.8877 26.226 23.7925C26.226 23.5231 26.0979 23.317 26.1299 23.0634C26.1459 22.8732 26.1459 22.6988 26.1139 22.5086C26.0819 22.3501 26.194 22.2074 25.8737 22.2233C25.2491 22.2233 25.089 22.1757 24.4644 22.1757C24.2883 22.1757 23.8879 22.1916 23.6957 22.1916V21.2247C23.8238 21.2247 24.1601 21.2088 24.2722 21.2088C24.9288 21.2088 25.4573 21.2405 26.1139 21.2405C26.1459 21.2405 26.258 21.1771 26.274 21.1613C26.3701 21.2088 26.3701 21.2088 26.3701 20.8125C26.3541 20.7174 26.3701 20.5272 26.3701 20.4321C26.3701 20.3528 26.178 20.3846 26.0498 20.337C26.1619 20.3211 26.3701 20.3528 26.3701 20.2577C26.3701 20.02 26.3862 19.7188 26.3862 19.481C26.3862 19.3067 26.3541 19.275 26.178 19.275C25.6495 19.275 25.2651 19.2591 24.7367 19.2591C24.4804 19.2591 23.984 19.2433 23.7117 19.2433V18.1971C23.7598 18.1971 24.032 18.2129 24.1121 18.1971ZM28.8364 2.56788C27.9716 1.72777 27.1228 0.887663 26.274 0.0475534C26.258 0.0158511 26.21 0 26.194 0.0158511C26.1619 0.0317023 26.1459 0.0792556 26.1459 0.110958C26.1459 0.618194 26.1459 1.10958 26.1459 1.61682C26.1459 1.66437 26.1619 1.71192 26.194 1.75948C26.242 1.82288 26.3061 1.88628 26.3541 1.94969C26.3541 1.96554 26.3381 1.96554 26.3381 1.96554C26.2901 1.91799 26.242 1.87043 26.194 1.82288C26.194 1.83873 26.178 1.83873 26.178 1.83873C26.226 1.90214 26.258 1.96554 26.3061 2.02894L26.2901 2.0448C26.242 1.99724 26.21 1.93384 26.1619 1.88628C26.1299 2.02894 26.1619 2.12405 26.258 2.21916C26.3221 2.28256 26.3701 2.36182 26.4342 2.44107L26.4182 2.45692C26.3381 2.36182 26.242 2.28256 26.1619 2.18746C26.1459 2.20331 26.1459 2.21916 26.1459 2.21916C26.1459 3.01171 26.1459 3.78842 26.1459 4.58098C26.1459 4.61268 26.1459 4.62853 26.1619 4.64438C26.258 4.73949 26.3701 4.85045 26.4822 4.9614C26.4983 4.9297 26.5303 4.898 26.5463 4.88215C27.1228 4.31151 27.6833 3.75672 28.2598 3.18608C28.388 3.07512 28.388 3.07512 28.2759 2.94831C28.2118 2.88491 28.1637 2.80565 28.0997 2.72639C28.1157 2.72639 28.1157 2.72639 28.1157 2.72639C28.2278 2.83735 28.3239 2.93246 28.436 3.02757C28.5801 2.88491 28.7243 2.74225 28.8684 2.59959C28.8524 2.58373 28.8524 2.58373 28.8364 2.56788ZM37.5162 5.80151C36.7475 6.56237 35.9628 7.33907 35.1781 8.11578C35.1781 8.13163 35.1781 8.14748 35.1781 8.14748C35.7065 8.65472 36.235 9.1778 36.7635 9.70089C37.0678 10.0021 37.3881 10.3032 37.6923 10.6203C37.7404 10.6678 37.8365 10.7154 37.8685 10.6995C37.9005 10.6995 37.8845 10.6837 37.9005 10.541C37.9005 10.43 37.9005 10.3191 37.9005 10.2081C37.9005 10.1923 37.9005 10.1606 37.8845 10.1447C37.8365 10.0813 37.7564 10.0179 37.6923 9.95451C37.6283 9.87525 37.5482 9.81185 37.4841 9.73259C37.5002 9.73259 37.2279 9.44727 37.2279 9.44727C37.356 9.55823 37.8204 9.93866 37.9325 10.0338C37.9325 9.19365 37.9325 8.41695 37.9325 7.59269C37.9325 7.57684 37.9005 7.52929 37.8845 7.51343C37.8365 7.46588 37.5802 7.14886 37.5322 7.10131C37.5322 7.10131 37.7404 7.29152 37.7404 7.27567C37.7884 7.30737 37.8685 7.41833 37.9165 7.45003C37.9325 7.43418 37.9325 7.41833 37.9325 7.41833C37.9325 6.9745 37.9325 6.49896 37.9325 6.07098V6.05513C37.8204 5.96002 37.7244 5.84907 37.6123 5.73811C37.5802 5.75396 37.5802 5.75396 37.5162 5.80151ZM45.5714 19.8139C45.6034 20.3846 45.4593 20.9235 45.2351 21.4466C45.0109 21.9538 44.6746 22.3818 44.2903 22.7622C44.034 23.0158 43.7938 23.2853 43.4575 23.4597C43.1052 23.634 42.7689 23.8084 42.4006 23.8876C42.2404 23.9194 42.0963 23.9035 41.9361 23.9194C41.9361 23.9352 41.4397 23.8559 41.4397 23.8401C41.4397 23.8242 41.824 23.8242 41.8401 23.8084C41.8401 23.8084 42.1443 23.8084 42.1603 23.8084C42.4166 23.7133 42.4646 23.634 42.7209 23.5548C42.881 23.4914 43.0572 23.4438 43.1372 23.3012C43.1853 23.2378 43.2173 23.1743 43.2814 23.1268C43.3774 23.0475 43.4415 23.0634 43.5376 23C43.5536 22.9841 43.6817 22.8732 43.6977 22.8573C43.7458 22.7939 43.8899 22.6037 43.8899 22.5879C43.7298 22.683 43.2333 23.0475 43.0892 23.1585C42.833 23.3487 42.5767 23.5072 42.2404 23.5389C41.8881 23.5548 41.5518 23.6657 41.1995 23.6182C40.8792 23.5706 40.5589 23.5389 40.2386 23.4438C39.9343 23.3487 39.7902 23.2378 40.1265 23.5072C40.1585 23.5389 40.1265 23.6023 40.1265 23.6499C40.1265 23.7608 40.0785 23.8084 39.9984 23.8242C39.9664 23.8401 39.9664 23.8877 39.9984 23.9035C40.1105 23.9511 40.2226 23.9986 40.2226 24.1413C40.2226 24.3156 40.2226 24.2998 40.3988 24.3315C40.5109 24.3473 40.5109 24.3632 40.5749 24.4741C40.5909 24.5058 40.655 24.5058 40.703 24.5217C40.7511 24.5375 40.7831 24.5692 40.8312 24.601C40.7831 24.6327 40.719 24.8229 40.687 24.8229C38.7493 24.8229 36.7795 24.8229 34.8257 24.8229C34.7937 24.8229 34.8578 25.0131 34.8097 25.0131C34.7777 25.0131 34.7136 25.0131 34.6656 24.9972C34.6176 24.9814 34.6015 25.0131 34.5695 24.9972C34.5215 24.9655 34.2973 24.601 34.2492 24.5692C34.2332 24.5851 34.2012 24.5375 34.1852 24.5375C34.1211 24.601 34.1531 24.601 34.1531 24.6644C34.1371 24.7753 34.1531 24.8387 34.0891 24.8704C33.993 24.918 34.009 24.9338 33.9129 24.9972C33.8649 24.9338 33.8329 24.9338 33.7688 24.8546C33.7688 24.8387 33.7528 24.8387 33.7368 24.8546C33.7047 24.8863 33.8008 25.0131 33.5286 25.0606C33.5126 25.0765 33.4005 24.9338 33.3844 24.918L33.2723 24.7119C33.2403 24.6327 33.1763 24.6644 33.0802 24.7278C33.0161 24.7753 33.0161 24.6802 32.856 24.5534C32.856 24.5851 32.872 24.601 32.872 24.6168C32.888 24.6327 32.888 24.6644 32.904 24.6802C32.6318 24.8387 32.5997 24.8229 32.4876 24.6644C31.751 23.6023 31.0303 22.5562 30.2937 21.4941C30.2296 21.4149 30.1816 21.399 30.0695 21.399C29.7972 21.399 29.6211 21.3832 29.3808 21.3673C29.0125 21.3515 29.0125 21.3515 29.0125 21.4783C29.0125 22.4452 29.0125 23.428 29.0125 24.3949C29.0125 24.4424 29.0125 24.5058 28.9805 24.5375C28.9645 24.5534 28.9164 24.5375 28.8844 24.5534C28.8364 24.5692 28.9164 24.7278 28.8684 24.7278C28.8043 24.7278 28.8043 24.7753 28.7403 24.7753C28.6602 24.7753 28.5801 24.807 28.5161 24.8704C28.484 24.9021 28.436 24.918 28.42 24.9338C28.388 24.8704 28.484 24.7119 28.452 24.6485C28.452 24.6327 28.404 24.7595 28.3719 24.5851C28.3239 24.4107 28.2438 24.7912 28.1317 24.8229C28.0196 24.8546 27.9556 24.6485 27.8435 24.6327C27.7634 24.6168 27.6032 24.7436 27.5232 24.7119C27.4911 24.6961 27.4751 24.7278 27.4431 24.7278C27.315 24.7278 27.299 24.6644 27.1869 24.6644C27.1709 24.6644 27.0588 24.7278 27.0267 24.7278C26.9787 24.7278 26.5303 24.7119 26.4822 24.7119C26.4822 24.6802 26.6104 24.5851 26.6264 24.5375C26.6264 24.5217 26.7705 24.49 26.7865 24.4741C27.0748 24.2205 26.9947 23.8242 26.9947 23.4755C26.9947 23.1744 26.9947 22.8732 26.9947 22.572C26.9947 21.3515 26.9787 20.1468 26.9787 18.9421C26.9787 18.3715 27.0107 17.8008 27.0107 17.2302C27.0107 16.3901 27.0123 16.5311 26.8506 16.073C26.8714 16.1285 26.8634 16.1047 26.7385 16.0255C26.7241 16.0144 26.6248 15.9288 26.6248 15.9129C26.6232 15.8812 26.676 15.867 26.6376 15.8591C26.5911 15.84 26.6792 15.821 26.6792 15.821C26.3125 15.7132 26.913 15.6768 27.0572 15.6768C27.3935 15.6768 27.7778 15.7402 28.1141 15.756C28.8988 15.8036 29.6195 15.8353 30.3882 15.8353C30.8526 15.8353 31.1568 15.8828 31.5572 16.0889C32.1818 16.3901 32.5821 16.818 32.8864 17.357C33.1266 17.7691 33.2387 18.2446 33.2227 18.736C33.1907 19.3384 32.8544 19.8298 32.5341 20.3053C32.454 20.4163 32.3579 20.5272 32.2618 20.6223C32.2138 20.6699 32.2298 20.7174 32.2618 20.765C32.8223 21.51 33.3668 22.1599 33.9273 22.9049C34.0234 23.0317 34.1836 23.1902 34.2797 23.317C34.2957 23.3487 34.1996 23.2536 34.2476 23.3012C34.2636 23.2378 34.2636 23.2378 34.2636 23.1902C34.2636 22.889 34.2636 22.5879 34.2636 22.2867C34.2797 20.6857 34.2797 19.1006 34.2797 17.4996C34.2797 17.1985 34.2636 17.0717 34.1996 16.6595C34.1676 16.4218 34.0555 16.3901 33.9113 16.2157C33.8793 16.1682 33.7512 16.073 33.7192 16.0255C33.7992 15.9304 34.0074 15.9145 34.1515 16.0096C34.1996 15.9779 34.2476 15.9462 34.3117 15.9145C34.3117 15.9145 34.3117 15.8828 34.3117 15.867C34.3117 15.7719 34.3918 15.8511 34.4878 15.8511C34.5839 15.8511 34.696 15.8511 34.8081 15.8511C34.9202 15.8511 35.0003 15.7243 35.1124 15.7243C35.1765 15.7243 35.2405 15.7243 35.3046 15.7243C35.4007 15.7243 35.4807 15.7402 35.5608 15.7402C35.5768 15.8036 35.5768 15.867 35.5768 15.9304C35.8651 15.9621 36.0573 15.6926 36.3455 15.7243C36.3615 15.7877 36.3615 15.8511 36.3775 15.9145H36.5857C36.6017 15.9145 36.6178 15.9304 36.6178 15.9462C36.6178 16.073 36.6017 16.4218 36.6017 16.4693C36.6017 18.4507 36.5537 20.448 36.6017 22.4452C36.6017 22.7464 36.5377 22.6988 37.0501 22.6988C37.3544 22.7147 37.5786 22.7147 37.8829 22.7147C38.5395 22.7147 38.6996 22.7464 38.9078 22.7305C38.8758 22.683 38.5075 22.5086 38.4754 22.4769C38.1551 22.2233 37.963 21.9538 37.7228 21.6209C37.3864 21.1296 37.2263 20.6065 37.2103 20.02C37.1783 19.3384 37.3224 18.7043 37.6747 18.102C37.6907 18.0703 37.6907 18.0544 37.7067 18.0227C37.7388 17.9435 37.7548 17.8325 37.8028 17.7691C37.979 17.5313 38.1712 17.2936 38.3633 17.0717C38.4114 17.0083 38.4754 16.9766 38.5235 16.9449C38.8117 16.7546 39.0359 16.5169 39.3242 16.3425C39.4843 16.2474 39.7085 16.2157 39.8847 16.1364C39.9007 16.1206 40.221 16.0572 40.269 16.0572C39.8367 16.2633 39.3402 16.612 39.1801 16.7388C39.1641 16.7546 39.1641 16.7546 39.1641 16.7546C39.132 16.8022 38.8758 17.1509 38.8918 17.1668C39.0519 16.9924 39.4683 16.6912 39.6125 16.5644C40.0128 16.2316 40.4932 16.1523 41.0057 16.1681C41.1659 16.1681 41.31 16.1523 41.4541 16.0889C41.6463 16.0096 41.8385 15.9938 42.0306 16.0889C42.1427 16.1523 42.2708 16.1523 42.3829 16.1681C42.415 16.1681 42.447 16.1523 42.479 16.1681C43.1356 16.4059 43.7922 16.612 44.3367 17.0558C44.3527 17.0558 44.3527 17.0717 44.3527 17.0717C44.657 17.4521 44.9773 17.8008 45.2335 18.2129C45.4257 18.5141 45.5378 18.847 45.5698 19.2116C45.5874 19.3859 45.6355 19.5761 45.5714 19.8139ZM30.9663 18.8945C31.1424 18.53 31.0784 17.9435 30.5179 17.7374C30.2456 17.6423 30.1335 17.674 29.9093 17.6582C29.9093 17.674 29.9093 17.674 29.9093 17.674C29.525 17.674 29.3328 17.674 28.9645 17.674C28.9324 17.674 28.9164 17.7057 28.9164 17.7216C28.9164 18.2288 28.9324 18.736 28.9324 19.2433C28.9324 19.2591 28.9645 19.275 28.9805 19.275C29.3808 19.275 29.7652 19.3067 30.1495 19.275C30.3577 19.2591 30.4218 19.275 30.63 19.2116C30.71 19.1957 30.9503 18.9897 30.9663 18.8945ZM43.3454 19.7981C43.3134 19.3542 43.1212 19.1006 42.833 18.7677C42.7529 18.6726 42.6728 18.6092 42.5767 18.5617C42.2885 18.419 41.9361 18.3081 41.6319 18.2446C41.5038 18.2605 41.3917 18.2605 41.2635 18.2764C40.9432 18.3081 40.687 18.3873 40.4148 18.5617C39.9343 18.8787 39.6141 19.3067 39.6461 19.8932C39.6941 20.5272 39.9664 20.9869 40.5589 21.2405C40.9753 21.4149 41.4237 21.399 41.8721 21.3198C42.2885 21.2405 42.6568 21.0662 42.9611 20.7808C43.2493 20.5114 43.3774 20.1943 43.3454 19.7981ZM59.9844 19.7664C60.0324 20.4163 59.9203 21.0186 59.7121 21.6051C59.584 21.9855 59.3598 22.3025 59.1036 22.6037C58.9114 22.8415 58.5271 23.1743 58.2708 23.3329C58.0466 23.4755 57.6783 23.634 57.4541 23.7608C56.9737 24.0145 56.4612 24.0779 55.9327 24.2047C55.5964 24.2839 55.1961 24.2364 54.8438 24.2998C54.7957 24.3156 54.7317 24.3156 54.6676 24.3156C54.4914 24.3156 54.3954 24.3156 54.2192 24.2998C54.1551 24.2998 54.0911 24.2839 54.043 24.2998C54.0751 24.3473 54.2993 24.5692 54.3313 24.6168C54.3793 24.6644 54.4594 24.7119 54.2993 24.7595C54.2352 24.7912 54.1712 24.8387 54.1231 24.8863C54.0591 24.9497 53.995 24.9497 53.947 24.8704C53.8989 24.7912 53.8188 24.7912 53.7548 24.8546C53.6747 24.918 53.6907 25.0131 53.6267 24.9497C53.6267 24.9338 53.6107 24.9338 53.6107 24.918C53.5466 24.8546 53.4986 24.807 53.3704 24.8229C53.1462 24.8546 53.2583 25.0448 53.3384 25.1557C53.3384 25.1557 53.2904 25.235 53.3064 25.2508C53.2423 25.3301 53.1462 25.1399 53.0822 25.0765C52.9861 24.9814 52.9701 24.9497 52.89 24.8546C52.874 24.8229 52.8259 24.8229 52.7939 24.8387C52.6818 24.918 52.5697 25.0131 52.4576 25.0765C52.4256 25.0923 52.3455 25.0765 52.3135 25.0448C52.2334 24.9814 52.1053 24.8387 52.0412 24.7595C52.0252 24.7595 52.0252 24.7753 52.0092 24.7753C52.0573 24.8704 52.1053 24.9655 52.1533 25.0606C52.1533 25.0606 52.2654 25.2191 52.2654 25.235C52.2334 25.2191 52.0412 25.0606 52.0252 25.0289C51.801 24.7595 51.4967 24.3949 51.2886 24.1096C50.5999 23.1902 50.0074 22.2391 49.3348 21.3039C49.2707 21.2088 49.1106 21.1296 48.9985 21.1296C48.7263 21.1296 48.47 21.1296 48.1978 21.1296C48.1017 21.1296 48.0536 21.1771 48.0536 21.2881C48.0536 21.3515 48.0697 21.5258 48.0697 21.6051C48.0857 22.5403 48.0697 23.4914 48.0536 24.4266C48.0536 24.4741 48.0376 24.5058 48.0056 24.5375C47.9896 24.5375 47.8935 24.2522 47.8455 24.2364C47.8294 24.379 47.9416 24.9021 47.4451 24.6802C47.2049 24.5534 46.9166 24.5534 46.6604 24.6802C46.4202 24.7912 46.3561 24.6168 46.18 24.6168C46.196 24.5375 46.212 24.4583 46.228 24.3949C46.212 24.3949 46.212 24.379 46.196 24.379C46.1479 24.4266 46.1159 24.4583 46.0839 24.5058C46.0518 24.5693 45.9558 24.601 45.8917 24.5534C45.7796 24.49 45.6675 24.4266 45.5394 24.3632C45.5554 24.3156 45.5874 24.2839 45.6034 24.2522C45.6835 24.1254 45.7796 23.9986 45.8597 23.8718C45.9718 23.6816 46.0038 23.4755 46.0038 23.2536C46.0038 21.8587 46.0038 20.4797 46.0038 19.1006C46.0038 18.3239 46.0198 17.5472 46.0038 16.7705C46.0038 16.5327 45.8757 16.3267 45.6355 16.2157C45.5394 16.1682 45.4257 16.1729 45.4049 15.9938C45.4529 15.9938 45.3152 15.9573 45.3792 15.9573C45.3792 15.9415 45.3792 15.9415 45.3792 15.9256C45.2992 15.9098 45.3632 15.8749 45.36 15.8432C45.328 15.8432 45.3664 15.8242 45.3792 15.8036C45.4017 15.7766 45.4433 15.7402 45.4753 15.7402C45.6034 15.7085 45.7316 15.6926 45.8757 15.6926C46.276 15.6768 46.6924 15.6451 47.0928 15.6451C47.8775 15.6451 48.6302 15.6768 49.4149 15.6926C49.8152 15.7085 50.3277 15.7719 50.68 15.9621C50.9042 16.0889 51.1444 16.2157 51.3366 16.3901C51.801 16.818 52.2654 17.4362 52.3295 18.0703C52.4256 19.0689 52.0092 19.3859 51.5928 19.9883C51.5128 20.1151 51.3686 20.2102 51.2565 20.337C51.2405 20.3687 51.2405 20.4004 51.2565 20.4321C51.9131 21.2881 52.5057 22.1916 53.1783 23.0475C53.1783 23.0475 53.2423 23.1426 53.2583 23.1426C53.2583 23.0792 53.2583 22.9207 53.2583 22.8732C53.2583 21.1137 53.2263 19.3542 53.2583 17.5948C53.2743 16.9607 53.1142 16.9449 52.842 16.7388C52.7619 16.6754 52.6338 16.6278 52.5697 16.5644C52.5377 16.5327 52.5217 16.4852 52.4896 16.4535C52.5377 16.4218 52.874 16.4535 52.922 16.4218C52.906 16.4059 52.6978 16.3425 52.6818 16.3267C52.6498 16.3108 52.6338 16.295 52.6017 16.2791C52.6178 16.2474 52.6178 16.2157 52.6498 16.1999C52.9861 16.0255 52.858 16.0889 53.3544 16.0255C53.5946 15.9938 53.8509 16.0096 54.0911 16.0255C54.2512 16.0413 54.4274 16.0096 54.5875 16.0096C54.9719 16.0255 55.4843 16.0255 55.8687 16.0413C56.4452 16.073 57.0217 16.2316 57.5342 16.501C57.8705 16.6595 58.0627 16.818 58.1908 16.929C58.2388 16.9607 58.3829 17.1034 58.5431 17.3094C58.6712 17.4679 58.8153 17.7057 58.9434 18.0069C58.9274 17.8484 58.7993 17.5472 58.6712 17.3253C58.5431 17.0875 58.2388 16.7705 58.1267 16.6595C58.399 16.7705 58.8314 17.1509 58.9915 17.3728C59.2317 17.6899 59.4239 18.102 59.6 18.4507C59.7121 18.6568 59.7282 18.9104 59.7922 19.1482C59.8403 19.3384 59.8883 19.5286 59.9844 19.7664ZM49.9754 17.9593C49.9273 17.7374 49.7352 17.5948 49.511 17.5631C49.4149 17.5472 49.3028 17.5472 49.2067 17.5472C49.0465 17.5472 48.8704 17.5472 48.7102 17.5472C48.486 17.5472 48.2779 17.5472 48.0697 17.5472C47.9255 17.5472 47.8935 17.6423 47.8935 17.7691C47.8935 18.1337 47.8935 18.5141 47.8935 18.8787C47.9095 18.9579 47.9736 19.0372 48.0697 19.0372C48.422 19.0372 48.7583 19.0531 49.1106 19.0372C49.2547 19.0372 49.4149 19.0055 49.559 18.9579C49.9594 18.8311 50.1195 18.4032 49.9754 17.9593ZM57.4061 19.1482C57.0698 18.4666 56.4932 18.2922 55.7566 18.2605C55.7085 18.2605 55.6605 18.2605 55.6125 18.2605C55.4523 18.2764 55.4203 18.2922 55.4203 18.4507C55.4203 19.5286 55.4203 20.5114 55.4203 21.5734C55.4203 21.7319 55.4683 21.716 55.6285 21.716C55.6605 21.716 55.6925 21.716 55.7246 21.716C56.189 21.6843 56.5893 21.6368 56.9577 21.3515C57.6943 20.7967 57.8224 19.9249 57.4061 19.1482ZM21.3096 20.3846C21.2936 20.6065 21.2295 20.971 21.1815 21.1771C21.1494 21.3515 21.1655 21.4307 21.1014 21.6209C21.0854 21.6526 21.0534 21.8112 21.0373 21.8429C20.717 22.461 20.3167 23.0634 19.7402 23.4438C19.6601 23.4914 19.4199 23.6816 19.4039 23.6816C19.3879 23.6657 19.7402 23.3012 19.7722 23.2536C19.8363 23.1743 19.8683 23.1109 19.8843 23.0951C20.0124 22.9841 20.1565 22.8415 20.2046 22.6513C20.2366 22.5562 20.3487 22.4135 20.4448 22.3501C20.669 22.1757 20.637 21.9221 20.701 21.6685C20.6049 21.938 20.3807 22.1916 20.2046 22.4135C20.0925 22.5562 20.0605 22.7622 19.9484 22.9049C19.9003 22.9841 19.7402 23.0317 19.6601 23.0951C19.58 23.1585 19.4839 23.2536 19.4359 23.3329C19.3078 23.5072 19.1637 23.5389 18.9875 23.634C18.6672 23.7925 18.3309 23.8876 17.9786 23.9669C17.4982 24.0779 17.0818 24.1254 16.5853 24.1571C15.9928 24.1888 15.4003 24.1888 14.8558 24.173C14.8077 24.173 14.7597 24.1254 14.7597 24.0779C14.7597 23.8401 14.7597 23.4121 14.7597 23.0634C14.7597 22.8573 14.7757 22.6513 14.7757 22.4452C14.7757 22.0489 14.7757 21.6685 14.7757 21.2881C14.7757 20.9552 14.7917 20.6223 14.7917 20.2894C14.7917 19.8932 14.7917 19.481 14.7917 19.0689C14.7917 18.2764 14.7917 17.5631 14.7917 16.7705C14.7917 16.7229 14.7597 16.6278 14.7597 16.5961C14.7437 16.5169 14.7437 16.5169 14.6956 16.4218C14.6796 16.3742 14.6476 16.3267 14.7437 16.2633C14.6956 16.2474 14.6956 16.1999 14.6476 16.184C14.6476 16.0889 14.6796 16.0096 14.7597 16.0096C15.2721 16.0096 15.6245 16.0096 16.1369 16.0096C16.3611 16.0096 16.5853 15.9938 16.7935 16.0096C17.4821 16.0413 18.0106 16.2157 18.6031 16.3742C19.1316 16.5169 19.58 16.8022 20.0284 17.1034C20.4448 17.3887 20.7331 17.7691 20.9733 18.2129C21.1494 18.5141 21.2135 18.847 21.2455 19.1957C21.2776 19.6237 21.3576 19.4493 21.3096 20.3846ZM18.1227 18.6092C17.7063 18.4349 17.322 18.419 16.8736 18.4349C16.8736 18.4349 16.8576 18.4349 16.8576 18.4507C16.8576 19.0055 16.8576 19.5444 16.8576 20.0992C16.8576 20.5906 16.8576 21.0661 16.8576 21.5575V21.5734C16.8576 21.7477 16.8896 21.716 17.0658 21.6843C17.354 21.6526 17.6263 21.6051 17.9145 21.5258C18.6031 21.3515 19.0515 20.8125 19.0836 20.0834C19.1156 19.481 18.8273 18.8945 18.1227 18.6092ZM26.8346 12.9187C26.8346 13.1881 26.8346 13.4101 26.8185 13.5369C26.8185 13.6161 26.8025 13.6795 26.7385 13.6954C26.7064 13.7112 26.6744 13.7112 26.6264 13.7112C26.5943 13.7112 26.5783 13.7112 26.5783 13.7271C26.5783 13.7429 26.6104 13.7588 26.6424 13.7588C26.7064 13.7588 26.7865 13.7588 26.8506 13.7588C26.9146 13.7588 26.9787 13.7588 27.0107 13.7588C27.0908 13.7588 27.1869 13.7588 27.299 13.7746C27.4111 13.7746 27.5232 13.7905 27.6353 13.7905C28.1798 13.7905 28.484 13.6003 28.6122 13.4576C28.7723 13.2832 28.9324 13.0138 28.9324 12.6492C28.9324 12.3163 28.7883 12.0627 28.6442 11.92C28.3239 11.5872 27.8435 11.5872 27.4751 11.5872C27.299 11.5872 27.1228 11.603 27.0267 11.603C26.9467 11.603 26.7705 11.5872 26.6104 11.5872C26.5623 11.5872 26.5463 11.5872 26.5463 11.6189C26.5463 11.6506 26.5623 11.6506 26.5943 11.6506C26.6264 11.6506 26.6904 11.6664 26.7064 11.6664C26.8025 11.6823 26.8346 11.7298 26.8346 11.8249C26.8346 11.92 26.8346 11.9993 26.8346 12.4431V12.9187ZM27.2029 12.7602V12.4114C27.2029 12.1895 27.2029 11.9359 27.2029 11.8408C27.2029 11.8091 27.2029 11.7932 27.2349 11.7774C27.2669 11.7774 27.363 11.7615 27.4271 11.7615C27.6673 11.7615 27.9876 11.7932 28.2598 12.0469C28.3719 12.1578 28.5321 12.3956 28.5321 12.7602C28.5321 13.0455 28.484 13.3149 28.2919 13.4735C28.1157 13.6161 27.9235 13.6795 27.6193 13.6795C27.379 13.6795 27.2669 13.6161 27.2349 13.5686C27.2189 13.5369 27.2029 13.4259 27.2029 13.3466C27.2029 13.2832 27.2029 13.0613 27.2029 12.7602ZM30.9663 13.838C31.7029 13.838 32.1674 13.3149 32.1674 12.6492C32.1674 11.9835 31.7189 11.5713 30.9983 11.5713C30.1335 11.5713 29.7972 12.2054 29.7972 12.6968C29.7972 13.204 30.1335 13.8222 30.9663 13.838ZM31.0944 13.6795C30.5339 13.6795 30.1976 13.204 30.1976 12.6016C30.1976 11.8883 30.5819 11.6981 30.9182 11.6981C31.3987 11.6981 31.767 12.0944 31.767 12.7443C31.767 13.5844 31.3026 13.6795 31.0944 13.6795ZM33.7368 11.7615V12.9345C33.7368 13.204 33.7368 13.4259 33.7207 13.5527C33.7207 13.632 33.7047 13.6954 33.6407 13.7112C33.6087 13.7271 33.5766 13.7271 33.5286 13.7271C33.4965 13.7271 33.4805 13.7271 33.4805 13.7429C33.4805 13.7588 33.5126 13.7746 33.5446 13.7746C33.6567 13.7746 33.8489 13.7588 33.9129 13.7588C34.009 13.7588 34.1852 13.7746 34.3773 13.7746C34.4094 13.7746 34.4254 13.7588 34.4254 13.7429C34.4254 13.7429 34.4094 13.7271 34.3773 13.7271C34.3453 13.7271 34.2813 13.7112 34.2332 13.7112C34.1531 13.6954 34.1371 13.632 34.1211 13.5527C34.1051 13.4259 34.1051 13.204 34.1051 12.9345V11.7457L34.4734 11.7615C34.7297 11.7615 34.8097 11.8408 34.8097 11.92V11.9518C34.8097 11.9993 34.8257 12.0152 34.8418 12.0152C34.8578 12.0152 34.8738 11.9993 34.8738 11.9676C34.8738 11.8883 34.8898 11.6981 34.8898 11.6347C34.8898 11.5872 34.8898 11.5713 34.8738 11.5713C34.8578 11.5713 34.8418 11.5713 34.7937 11.5872C34.7457 11.5872 34.6816 11.603 34.5855 11.603H33.4325C33.3364 11.603 33.2243 11.603 33.1442 11.5872C33.0642 11.5872 33.0321 11.5555 33.0161 11.5555C33.0001 11.5555 33.0001 11.5713 32.9841 11.603C32.9681 11.6347 32.92 11.8883 32.92 11.9359C32.92 11.9676 32.936 11.9835 32.9521 11.9835C32.9681 11.9835 32.9841 11.9676 32.9841 11.9518C32.9841 11.9359 33.0001 11.9042 33.0321 11.8566C33.0802 11.7932 33.1442 11.7774 33.3204 11.7774L33.7528 11.7615H33.7368ZM37.8365 13.1564C37.8044 13.1564 37.8044 13.1564 37.7404 13.1564C37.5642 13.1723 37.4841 13.2515 37.324 13.2515C37.34 13.2832 37.356 13.3308 37.372 13.3625C37.4841 13.632 37.5642 13.6637 37.6283 13.6795C37.6763 13.6954 37.7244 13.6954 37.7564 13.6954C37.7724 13.6954 37.7884 13.6954 37.7884 13.7112C37.7884 13.7429 37.7724 13.7429 37.6603 13.7429C37.5642 13.7429 37.356 13.7429 37.1158 13.7429C37.0678 13.7429 37.0357 13.7429 37.0357 13.7271C37.0357 13.7112 37.0517 13.6954 37.0838 13.6954C37.1158 13.6954 37.1318 13.6637 37.1158 13.632L36.9877 13.2832C36.9717 13.2674 36.9717 13.2674 36.9557 13.2674H36.1069C36.0909 13.2674 36.0749 13.2674 36.0749 13.2832L36.0268 13.4259C35.9948 13.4893 35.9788 13.5686 35.9788 13.6003C35.9788 13.6637 35.9948 13.6954 36.0909 13.6954H36.1389C36.171 13.6954 36.187 13.6954 36.187 13.7112C36.187 13.7429 36.171 13.7429 36.1389 13.7429C36.0428 13.7429 35.9307 13.7271 35.8347 13.7271C35.8026 13.7271 35.6425 13.7429 35.4984 13.7429C35.4663 13.7429 35.4503 13.7271 35.4503 13.7112C35.4503 13.6954 35.4663 13.6954 35.4823 13.6954C35.5144 13.6954 35.5624 13.6954 35.5784 13.6954C35.7065 13.6795 35.7546 13.5844 35.8186 13.4418L36.5553 11.6347C36.5873 11.5555 36.6033 11.5238 36.6354 11.5238C36.6674 11.5238 36.6834 11.5555 36.7154 11.6189C36.7635 11.7615 37.0998 12.6175 37.324 13.1406C37.5482 13.1406 37.8204 13.1406 37.8685 13.1406C37.9325 13.1406 37.9165 13.1881 37.8365 13.1564ZM36.1549 13.1881H36.9076C36.9236 13.1881 36.9236 13.1881 36.9236 13.1723L36.5553 12.1737C36.5553 12.1578 36.5553 12.142 36.5393 12.142C36.5393 12.142 36.5233 12.1578 36.5233 12.1737L36.1389 13.1564C36.1389 13.1723 36.1389 13.1723 36.1549 13.1881ZM64.1609 15.0253V15.1109H63.9944V15.542H63.8903V15.1109H63.7238V15.0253H64.1609ZM64.7247 15.5436L64.7054 15.2393C64.7038 15.1996 64.7038 15.1505 64.7022 15.095H64.6958C64.683 15.141 64.667 15.2012 64.651 15.2488L64.5565 15.5357H64.4492L64.3547 15.2409C64.3451 15.2012 64.3291 15.141 64.3179 15.095H64.3115C64.3115 15.1426 64.3099 15.1917 64.3083 15.2393L64.2891 15.5436H64.1898L64.2282 15.0269H64.3835L64.4732 15.2789C64.4844 15.3185 64.494 15.3566 64.5085 15.4105H64.5101C64.5229 15.3629 64.5357 15.3185 64.5469 15.2805L64.6366 15.0253H64.7871L64.8271 15.542H64.7247V15.5436Z" fill="white"/>
</svg>
