<svg width="16" height="16" viewBox="0 0 16 16" fill="none" xmlns="http://www.w3.org/2000/svg">
<path opacity="0.2" fill-rule="evenodd" clip-rule="evenodd" d="M10 6.5C10 8.433 8.433 10 6.5 10C4.567 10 3 8.433 3 6.5C3 4.567 4.567 3 6.5 3C8.433 3 10 4.567 10 6.5ZM10.2374 11.8188C9.18017 12.563 7.89112 13 6.5 13C2.91015 13 0 10.0899 0 6.5C0 2.91015 2.91015 0 6.5 0C10.0899 0 13 2.91015 13 6.5C13 7.89127 12.5629 9.18044 11.8185 10.2377C11.8537 10.2586 11.8881 10.2815 11.9214 10.3065L15.152 12.7259C15.9967 13.3585 16.0849 14.5928 15.3387 15.339C14.5924 16.0852 13.3582 15.997 12.7256 15.1523L10.3062 11.9217C10.2812 11.8883 10.2583 11.854 10.2374 11.8188Z" fill="white"/>
</svg>
