<svg width="14" height="16" viewBox="0 0 14 16" fill="none" xmlns="http://www.w3.org/2000/svg">
<g opacity="0.2">
<path d="M0.819901 7.80099C0.922141 6.77859 1.78247 6 2.80998 6H11.19C12.2175 6 13.0779 6.77859 13.1801 7.80099L13.7801 13.801C13.8978 14.9784 12.9733 16 11.79 16H2.20998C1.02673 16 0.102164 14.9784 0.219901 13.801L0.819901 7.80099Z" fill="white"/>
<path d="M4 4C4 2.34315 5.34315 1 7 1C8.65685 1 10 2.34315 10 4V6C10 7.65685 8.65685 9 7 9C5.34315 9 4 7.65685 4 6V4Z" stroke="white" stroke-width="2"/>
</g>
</svg>
