<svg width="19" height="18" viewBox="0 0 19 18" fill="none" xmlns="http://www.w3.org/2000/svg">
<path opacity="0.2" d="M9.66299 6.10892L12.3532 4.78122L9.66299 6.10892C10.2456 7.28949 11.3719 8.10777 12.6747 8.29708L13.0392 8.35004L12.7755 8.60711C11.8327 9.52606 11.4025 10.8501 11.6251 12.1476L11.6874 12.5106L11.3614 12.3392C10.1961 11.7266 8.80393 11.7266 7.63864 12.3392L7.31265 12.5106L7.37491 12.1476C7.59746 10.8501 7.16726 9.52606 6.22452 8.60712L4.19473 10.6895L6.22452 8.60711L5.96079 8.35004L6.32526 8.29708C7.6281 8.10777 8.75436 7.28949 9.33701 6.10892L6.6468 4.78122L9.33701 6.10892L9.5 5.77866L9.66299 6.10892Z" stroke="white" stroke-width="6"/>
</svg>
