<svg width="130" height="14" viewBox="0 0 130 14" fill="none" xmlns="http://www.w3.org/2000/svg">
<path d="M0.432617 2.29156C0.432617 1.40746 1.34066 0.523361 2.24871 0.523361H7.37412C8.28217 0.523361 9.19022 1.40746 9.19022 2.29156H2.57157V6.65313H9.19022C9.19022 7.53723 8.28217 8.42133 7.37412 8.42133H2.24871C1.34066 8.42133 0.432617 7.53723 0.432617 6.65313V2.29156ZM10.1588 2.29156C10.1588 1.40746 11.0668 0.523361 11.9749 0.523361H17.3828C18.2909 0.523361 19.1989 1.40746 19.1989 2.29156V6.65313C19.1989 7.53723 18.2909 8.42133 17.3828 8.42133H11.9749C11.0668 8.42133 10.1588 7.53723 10.1588 6.65313V2.29156ZM12.217 2.29156V6.65313H17.1407V2.29156H12.217ZM20.6114 0.523361C21.5195 0.523361 22.6697 1.40746 22.6697 2.29156V6.65313H27.5933V0.523361H29.6515V6.65313C29.6515 7.53723 28.7435 8.42133 27.5933 8.42133H22.6697C21.5195 8.42133 20.6114 7.53723 20.6114 6.65313V0.523361ZM31.2255 0.523361C33.203 0.523361 33.9698 1.21954 34.7366 1.91572L38.9338 5.72648V2.29156C38.9338 1.40746 39.9225 0.523361 40.9113 0.523361V8.42133H38.9338L33.203 3.21822V8.42133H31.2255V0.523361ZM41.4763 2.29156C41.4763 1.40746 42.3843 0.523361 43.2924 0.523361H50.6375C50.6375 1.40746 49.7294 2.29156 48.8214 2.29156H47.0053V8.42133H45.0278V2.29156H41.4763ZM51.2428 0.523361H59.1126C59.1126 1.40746 58.2045 2.29156 57.2965 2.29156H53.3011V3.58825H58.1843C58.1843 4.47235 57.2763 5.35645 56.3683 5.35645H53.3011V6.65313H59.1126C59.1126 7.53723 58.2045 8.42133 57.2965 8.42133H51.2428V0.523361ZM60.2426 0.523361H65.933C68.193 0.523361 68.7177 1.40746 68.7177 3.03814V3.47037C68.7177 4.72776 68.4007 5.55358 67.1993 5.85464L69.5652 8.65709H67.2648C66.9752 8.65709 66.7836 8.53922 66.6855 8.42133L63.1887 4.21694H65.933C66.3164 4.21694 66.6998 3.94189 66.6998 3.66683V2.84167C66.6998 2.56662 66.3164 2.29156 65.933 2.29156H62.2605V8.42133H60.2426V0.523361ZM71.0181 3.58825H75.4574V5.35645H71.0181V3.58825ZM77.7578 2.29156C77.7578 1.40746 78.7869 0.523361 79.816 0.523361H84.7396C85.7688 0.523361 86.7979 1.40746 86.7979 2.29156H79.816V3.58825H84.7396C85.7688 3.58825 86.7979 4.47235 86.7979 5.35645V6.65313C86.7979 7.53723 85.7688 8.42133 84.7396 8.42133H79.816C78.7869 8.42133 77.7578 7.53723 77.7578 6.65313H84.7396V5.35645H79.816C78.7869 5.35645 77.7578 4.47235 77.7578 3.58825V2.29156ZM87.1611 2.29156C87.1611 1.40746 88.0691 0.523361 88.9772 0.523361H96.3223C96.3223 1.40746 95.4142 2.29156 94.5062 2.29156H92.6901V8.42133H90.7126V2.29156H87.1611ZM97.0084 0.523361H102.699C104.959 0.523361 105.483 1.40746 105.483 3.03814V3.47037C105.483 4.72776 105.166 5.55358 103.965 5.85464L106.331 8.65709H104.031C103.741 8.65709 103.549 8.53922 103.451 8.42133L99.9545 4.21694H102.699C103.082 4.21694 103.466 3.94189 103.466 3.66683V2.84167C103.466 2.56662 103.082 2.29156 102.699 2.29156H99.0262V8.42133H97.0084V0.523361ZM107.622 0.523361H109.64V8.42133H107.622V0.523361ZM111.779 0.523361H113.757V3.58825H114.039L117.873 0.523361H120.779L116.259 4.41341L121.546 8.42133H118.64C118.257 8.42133 118.136 8.23642 117.873 8.05149L114.039 5.23857H113.757V8.42133H111.779V0.523361ZM121.707 0.523361H129.577C129.577 1.40746 128.669 2.29156 127.761 2.29156H123.765V3.58825H128.649C128.649 4.47235 127.741 5.35645 126.833 5.35645H123.765V6.65313H129.577C129.577 7.53723 128.669 8.42133 127.761 8.42133H121.707V0.523361ZM80.7838 12.38H82.041L82.0494 12.9319C82.0494 13.3339 81.9713 13.5932 81.8151 13.71C81.6603 13.8254 81.3137 13.8831 80.7754 13.8831C80.2817 13.8831 79.9547 13.8057 79.7943 13.6509C79.6339 13.4961 79.5537 13.1804 79.5537 12.7038C79.5537 12.0955 79.5858 11.7112 79.6499 11.551C79.7294 11.3554 79.8501 11.2237 80.0118 11.1558C80.1736 11.0879 80.4484 11.054 80.8361 11.054C81.3437 11.054 81.6715 11.1069 81.8193 11.2129C81.9671 11.3174 82.041 11.5503 82.041 11.9115H81.493C81.4832 11.7295 81.442 11.6168 81.3695 11.5734C81.2984 11.5286 81.1185 11.5062 80.8298 11.5062C80.516 11.5062 80.3166 11.5442 80.2315 11.6202C80.1478 11.6963 80.106 11.8748 80.106 12.1559L80.1039 12.4349L80.1081 12.7914C80.1081 13.067 80.1499 13.2429 80.2336 13.3189C80.3173 13.3936 80.5111 13.4309 80.8151 13.4309C81.1108 13.4309 81.2984 13.399 81.3779 13.3352C81.4588 13.2714 81.4992 13.1207 81.4992 12.883L81.5013 12.769H80.7838V12.38ZM83.2666 11.054H83.8114V13.4116H85.1029V13.8831H83.2666V11.054ZM87.4339 11.054C87.9527 11.054 88.2868 11.1382 88.436 11.3066C88.5852 11.4736 88.6598 11.8483 88.6598 12.4309C88.6598 13.0677 88.5845 13.469 88.4339 13.6346C88.2847 13.8003 87.9221 13.8831 87.3461 13.8831C86.8273 13.8831 86.4918 13.8016 86.3398 13.6387C86.1878 13.4744 86.1118 13.1139 86.1118 12.5572C86.1118 11.8945 86.1864 11.4783 86.3356 11.3086C86.4849 11.1389 86.851 11.054 87.4339 11.054ZM87.3921 11.5062C87.0281 11.5062 86.8154 11.5517 86.754 11.6426C86.6927 11.7336 86.662 12.0486 86.662 12.5877C86.662 12.9869 86.6976 13.2273 86.7687 13.3087C86.8412 13.3902 87.0532 13.4309 87.4046 13.4309C87.7408 13.4309 87.9423 13.3855 88.0092 13.2945C88.0762 13.2021 88.1096 12.9238 88.1096 12.4594C88.1096 11.9936 88.0776 11.7187 88.0134 11.6345C87.9506 11.5489 87.7435 11.5062 87.3921 11.5062ZM89.8247 13.8831V11.054H91.2531C91.588 11.054 91.8158 11.1065 91.9364 11.2115C92.0585 11.3151 92.1195 11.5114 92.1195 11.8001C92.1195 12.1497 91.9769 12.3556 91.6916 12.4178V12.4281C92.0237 12.4779 92.1897 12.7024 92.1897 13.1017C92.1897 13.3905 92.1259 13.593 91.9982 13.709C91.8704 13.8251 91.6476 13.8831 91.3297 13.8831H89.8247ZM90.3761 12.2416H91.0509C91.2694 12.2416 91.4085 12.2181 91.4681 12.1711C91.5291 12.1242 91.5596 12.0157 91.5596 11.8457C91.5596 11.6191 91.4277 11.5058 91.1637 11.5058H90.3761V12.2416ZM90.3761 13.4313H90.9806L91.1743 13.4271C91.3602 13.4271 91.4823 13.4016 91.5405 13.3505C91.6001 13.2993 91.6299 13.1916 91.6299 13.0271C91.6299 12.8558 91.5987 12.748 91.5362 12.7038C91.4752 12.6596 91.3233 12.6375 91.0807 12.6375H90.3761V13.4313ZM93.1138 13.8831L94.1026 11.054H94.9098L95.8783 13.8831H95.273L95.1033 13.3527H93.9091L93.7394 13.8831H93.1138ZM94.0411 12.9401H94.9713L94.5062 11.4862L94.0411 12.9401ZM96.9478 11.054H97.4926V13.4116H98.7841V13.8831H96.9478V11.054ZM103.032 11.054C103.551 11.054 103.885 11.1382 104.034 11.3066C104.183 11.4736 104.258 11.8483 104.258 12.4309C104.258 13.0677 104.183 13.469 104.032 13.6346C103.883 13.8003 103.52 13.8831 102.944 13.8831C102.425 13.8831 102.09 13.8016 101.938 13.6387C101.786 13.4744 101.71 13.1139 101.71 12.5572C101.71 11.8945 101.785 11.4783 101.934 11.3086C102.083 11.1389 102.449 11.054 103.032 11.054ZM102.99 11.5062C102.626 11.5062 102.414 11.5517 102.352 11.6426C102.291 11.7336 102.26 12.0486 102.26 12.5877C102.26 12.9869 102.296 13.2273 102.367 13.3087C102.439 13.3902 102.651 13.4309 103.003 13.4309C103.339 13.4309 103.54 13.3855 103.607 13.2945C103.674 13.2021 103.708 12.9238 103.708 12.4594C103.708 11.9936 103.676 11.7187 103.612 11.6345C103.549 11.5489 103.342 11.5062 102.99 11.5062ZM105.463 11.054H107.34V11.5648H106.008V12.3114H107.259V12.7436H106.008V13.8831H105.463V11.054ZM108.51 11.054H110.387V11.5648H109.055V12.3114H110.306V12.7436H109.055V13.8831H108.51V11.054ZM111.497 11.054H113.474V11.5255H112.042V12.2328H113.394V12.665H112.042V13.4116H113.474V13.8831H111.497V11.054ZM114.685 11.054H115.613L116.804 13.3723V11.054H117.349V13.8831H116.42L115.23 11.5648V13.8831H114.685V11.054ZM120.796 11.8891H120.266C120.264 11.8633 120.262 11.8443 120.262 11.8321C120.25 11.6759 120.214 11.5781 120.155 11.5388C120.097 11.498 119.959 11.4776 119.741 11.4776C119.485 11.4776 119.317 11.5007 119.237 11.5469C119.159 11.5931 119.12 11.6902 119.12 11.8382C119.12 12.0133 119.152 12.1186 119.216 12.1539C119.28 12.1892 119.492 12.2163 119.852 12.2353C120.278 12.2584 120.552 12.3175 120.676 12.4125C120.802 12.5076 120.865 12.7052 120.865 13.0053C120.865 13.3746 120.791 13.6136 120.645 13.7222C120.499 13.8295 120.176 13.8831 119.676 13.8831C119.227 13.8831 118.929 13.8302 118.781 13.7242C118.635 13.6183 118.561 13.4038 118.561 13.0806L118.559 12.9788H119.086L119.089 13.0378C119.089 13.232 119.123 13.3508 119.193 13.3943C119.263 13.4377 119.453 13.4595 119.764 13.4595C120.007 13.4595 120.162 13.4343 120.229 13.3841C120.296 13.3339 120.329 13.2178 120.329 13.0358C120.329 12.9014 120.303 12.8124 120.252 12.769C120.202 12.7242 120.092 12.697 119.923 12.6875L119.624 12.6692C119.172 12.6434 118.884 12.5823 118.758 12.4859C118.633 12.3895 118.57 12.1824 118.57 11.8646C118.57 11.5401 118.645 11.3242 118.796 11.2169C118.948 11.1083 119.25 11.054 119.704 11.054C120.133 11.054 120.423 11.1036 120.572 11.2027C120.721 11.3018 120.796 11.4953 120.796 11.7832V11.8891ZM122.091 11.054H122.635V13.8831H122.091V11.054ZM123.685 11.054H124.27L125.037 13.3919L125.804 11.054H126.389L125.46 13.8831H124.613L123.685 11.054ZM127.377 11.054H129.355V11.5255H127.922V12.2328H129.274V12.665H127.922V13.4116H129.355V13.8831H127.377V11.054Z" fill="white"/>
</svg>
